<svg width="16" height="21" viewBox="0 0 16 21" fill="none" xmlns="http://www.w3.org/2000/svg">
<path id="Vector" d="M12 2.83333V4.5H15C15.2652 4.5 15.5196 4.60536 15.7071 4.79289C15.8946 4.98043 16 5.23478 16 5.5C16 5.76522 15.8946 6.01957 15.7071 6.20711C15.5196 6.39464 15.2652 6.5 15 6.5H1C0.734783 6.5 0.480429 6.39464 0.292893 6.20711C0.105357 6.01957 0 5.76522 0 5.5C0 5.23478 0.105357 4.98043 0.292893 4.79289C0.480429 4.60536 0.734783 4.5 1 4.5H4V2.83333C4 1.54533 5.04533 0.5 6.33333 0.5H9.66667C10.9547 0.5 12 1.54533 12 2.83333ZM3.328 9.4L4.208 18.2C4.21627 18.2823 4.25483 18.3585 4.31618 18.414C4.37753 18.4694 4.45731 18.5001 4.54 18.5H11.46C11.5427 18.5001 11.6225 18.4694 11.6838 18.414C11.7452 18.3585 11.7837 18.2823 11.792 18.2L12.672 9.4C12.7051 9.1417 12.8376 8.90648 13.0414 8.74437C13.2452 8.58226 13.5042 8.50604 13.7633 8.53191C14.0224 8.55779 14.2612 8.68373 14.4289 8.88294C14.5966 9.08215 14.68 9.33893 14.6613 9.59867L13.7813 18.3987C13.7238 18.9744 13.4544 19.5082 13.0255 19.8965C12.5965 20.2848 12.0386 20.4999 11.46 20.5H4.54C3.96161 20.4999 3.40386 20.285 2.97494 19.897C2.54602 19.509 2.27651 18.9755 2.21867 18.4L1.33867 9.6C1.32197 9.4676 1.33194 9.3332 1.36799 9.20471C1.40404 9.07623 1.46544 8.95625 1.54858 8.85187C1.63172 8.74748 1.73491 8.66079 1.85207 8.5969C1.96923 8.53302 2.098 8.49323 2.23077 8.47988C2.36355 8.46653 2.49766 8.47989 2.6252 8.51918C2.75273 8.55846 2.87111 8.62288 2.97336 8.70863C3.07562 8.79438 3.15967 8.89972 3.22058 9.01846C3.28149 9.1372 3.31801 9.26693 3.328 9.4ZM6 2.83333V4.5H10V2.83333C10 2.74493 9.96488 2.66014 9.90237 2.59763C9.83986 2.53512 9.75507 2.5 9.66667 2.5H6.33333C6.24493 2.5 6.16014 2.53512 6.09763 2.59763C6.03512 2.66014 6 2.74493 6 2.83333Z" fill="#F96F5D"/>
</svg>
