<svg width="28" height="27" viewBox="0 0 28 27" fill="none" xmlns="http://www.w3.org/2000/svg">
<path id="Vector" d="M10.7926 26C9.55341 25.7177 8.36307 25.2526 7.26068 24.62M16.4893 1C19.3208 1.64668 21.8489 3.23552 23.6596 5.50639C25.4703 7.77726 26.4564 10.5956 26.4564 13.5C26.4564 16.4044 25.4703 19.2227 23.6596 21.4936C21.8489 23.7645 19.3208 25.3533 16.4893 26M3.07218 20.7533C2.29613 19.6242 1.70616 18.3778 1.32471 17.0619M1 11.3637C1.22787 10.0108 1.66651 8.72901 2.28176 7.55406L2.52244 7.11969M6.38766 2.93118C7.72097 2.01527 9.21561 1.36 10.7926 1M16.4893 16.3484L10.7926 10.6516M10.7926 16.3484L16.4893 10.6516" stroke="#5A5A5A" stroke-width="1.5" stroke-linecap="round" stroke-linejoin="round"/>
</svg>
