<svg width="26" height="24" viewBox="0 0 26 24" fill="none" xmlns="http://www.w3.org/2000/svg">
<g id="Group">
<path id="Vector" fill-rule="evenodd" clip-rule="evenodd" d="M18.847 23.9996C20.6124 23.9996 22.3055 23.2983 23.5538 22.0499C24.8022 20.8016 25.5035 19.1085 25.5035 17.343C25.5035 15.5776 24.8022 13.8845 23.5538 12.6362C22.3055 11.3878 20.6124 10.6865 18.847 10.6865C17.0815 10.6865 15.3884 11.3878 14.1401 12.6362C12.8917 13.8845 12.1904 15.5776 12.1904 17.343C12.1904 19.1085 12.8917 20.8016 14.1401 22.0499C15.3884 23.2983 17.0815 23.9996 18.847 23.9996ZM18.847 13.1156C19.0074 13.1156 19.1614 13.1793 19.2749 13.2928C19.3883 13.4063 19.4521 13.5602 19.4521 13.7207V16.7379H22.4693C22.6298 16.7379 22.7837 16.8017 22.8972 16.9152C23.0107 17.0286 23.0745 17.1826 23.0745 17.343C23.0745 17.5035 23.0107 17.6575 22.8972 17.7709C22.7837 17.8844 22.6298 17.9482 22.4693 17.9482H19.4521V20.9666C19.4521 21.1271 19.3883 21.281 19.2749 21.3945C19.1614 21.508 19.0074 21.5718 18.847 21.5718C18.6865 21.5718 18.5325 21.508 18.4191 21.3945C18.3056 21.281 18.2418 21.1271 18.2418 20.9666V17.9482H15.2246C15.0641 17.9482 14.9102 17.8844 14.7967 17.7709C14.6832 17.6575 14.6195 17.5035 14.6195 17.343C14.6195 17.1826 14.6832 17.0286 14.7967 16.9152C14.9102 16.8017 15.0641 16.7379 15.2246 16.7379H18.2418V13.7207C18.2418 13.5602 18.3056 13.4063 18.4191 13.2928C18.5325 13.1793 18.6865 13.1156 18.847 13.1156Z" fill="#5A5A5A"/>
<path id="Vector_2" d="M1 6.59753V14.5599C1 16.5932 1 17.6098 1.39576 18.3868C1.74406 19.0696 2.29946 19.6245 2.98243 19.9723C3.75943 20.3693 4.77607 20.3693 6.80933 20.3693H10.0771M1 6.59753V5.357C1 3.83205 1 3.06957 1.29652 2.48743C1.55767 1.97459 1.97459 1.55767 2.48743 1.29652C3.06836 1 3.83084 1 5.357 1H7.38906C8.12854 1 8.49888 1 8.84744 1.08472C9.15588 1.15879 9.45076 1.28091 9.72126 1.44659C10.0275 1.63298 10.2889 1.8944 10.8117 2.41845L12.1951 3.80179M1 6.59753H7.3939C8.13338 6.59753 8.50372 6.59753 8.85228 6.51402C9.16079 6.43957 9.45567 6.31705 9.7261 6.15094C10.0311 5.96456 10.2937 5.70314 10.8166 5.1803L12.1951 3.80058H17.5796C19.6129 3.80058 20.6295 3.80058 21.4077 4.19513C22.0904 4.54343 22.6454 5.09884 22.9932 5.78181C23.3163 6.41236 23.3756 7.20267 23.3877 8.56665" stroke="#5A5A5A" stroke-width="1.5" stroke-linecap="round" stroke-linejoin="round"/>
</g>
</svg>
