<svg width="20" height="21" viewBox="0 0 20 21" fill="none" xmlns="http://www.w3.org/2000/svg">
<path id="Vector" d="M0 2.68776C0 1.48012 0.98 0.5 2.1875 0.5H17.8125C19.02 0.5 20 1.48012 20 2.68776V14.5642C20 15.1444 19.7695 15.7009 19.3593 16.1112C18.9491 16.5215 18.3927 16.7519 17.8125 16.7519H10.075L6.85875 19.9686C6.60381 20.2226 6.2794 20.3954 5.9264 20.4653C5.5734 20.5352 5.20761 20.499 4.87514 20.3613C4.54268 20.2236 4.25841 19.9905 4.05818 19.6915C3.85795 19.3924 3.75072 19.0408 3.75 18.6809V16.7519H2.1875C1.60734 16.7519 1.05094 16.5215 0.640704 16.1112C0.230468 15.7009 0 15.1444 0 14.5642L0 2.68776ZM2.1875 2.37522C2.10462 2.37522 2.02513 2.40815 1.96653 2.46676C1.90792 2.52538 1.875 2.60487 1.875 2.68776V14.5642C1.875 14.7367 2.015 14.8767 2.1875 14.8767H4.6875C4.93614 14.8767 5.1746 14.9755 5.35041 15.1513C5.52623 15.3272 5.625 15.5657 5.625 15.8143V18.5522L9.025 15.1518C9.20065 14.9759 9.43894 14.8769 9.6875 14.8767H17.8125C17.8954 14.8767 17.9749 14.8438 18.0335 14.7852C18.0921 14.7266 18.125 14.6471 18.125 14.5642V2.68776C18.125 2.60487 18.0921 2.52538 18.0335 2.46676C17.9749 2.40815 17.8954 2.37522 17.8125 2.37522H2.1875ZM10.9375 5.18806V8.31344C10.9375 8.56211 10.8387 8.80059 10.6629 8.97643C10.4871 9.15226 10.2486 9.25105 10 9.25105C9.75136 9.25105 9.5129 9.15226 9.33709 8.97643C9.16127 8.80059 9.0625 8.56211 9.0625 8.31344V5.18806C9.0625 4.93939 9.16127 4.70091 9.33709 4.52507C9.5129 4.34923 9.75136 4.25045 10 4.25045C10.2486 4.25045 10.4871 4.34923 10.6629 4.52507C10.8387 4.70091 10.9375 4.93939 10.9375 5.18806ZM11.25 11.7513C11.25 12.0829 11.1183 12.4009 10.8839 12.6353C10.6495 12.8698 10.3315 13.0015 10 13.0015C9.66848 13.0015 9.35054 12.8698 9.11612 12.6353C8.8817 12.4009 8.75 12.0829 8.75 11.7513C8.75 11.4198 8.8817 11.1018 9.11612 10.8674C9.35054 10.6329 9.66848 10.5012 10 10.5012C10.3315 10.5012 10.6495 10.6329 10.8839 10.8674C11.1183 11.1018 11.25 11.4198 11.25 11.7513Z" fill="#5A5A5A"/>
</svg>
