<svg width="23" height="25" viewBox="0 0 23 25" fill="none" xmlns="http://www.w3.org/2000/svg">
<g id="clarity:export-line" clip-path="url(#clip0_900_6323)">
<path id="Vector" d="M3.83332 9.45144H8.69526V4.16672H15.3333V9.98616H16.6111V4.16672C16.6111 3.79836 16.4765 3.4451 16.2368 3.18463C15.9972 2.92416 15.6722 2.77783 15.3333 2.77783H6.94471L2.55554 7.54866V20.8334C2.55554 21.2017 2.69016 21.555 2.92979 21.8155C3.16942 22.0759 3.49443 22.2223 3.83332 22.2223H15.3333C15.6722 22.2223 15.9972 22.0759 16.2368 21.8155C16.4765 21.555 16.6111 21.2017 16.6111 20.8334H3.83332V9.45144ZM3.83332 8.11811L7.4686 4.16672H7.66665V8.33339H3.83332V8.11811Z" fill="#5A5A5A"/>
<path id="Vector_2" d="M18.0933 11.354C17.9711 11.2402 17.8139 11.1808 17.6531 11.1875C17.4923 11.1943 17.3398 11.2667 17.226 11.3904C17.1122 11.5141 17.0455 11.6799 17.0393 11.8547C17.0331 12.0294 17.0878 12.2003 17.1925 12.3332L19.2689 14.5832H11.5C11.3305 14.5832 11.168 14.6563 11.0482 14.7866C10.9284 14.9168 10.8611 15.0934 10.8611 15.2776C10.8611 15.4618 10.9284 15.6384 11.0482 15.7687C11.168 15.8989 11.3305 15.9721 11.5 15.9721H19.288L17.1925 18.2498C17.1256 18.3121 17.0713 18.3887 17.0329 18.4749C16.9946 18.561 16.973 18.6548 16.9696 18.7505C16.9662 18.8461 16.9811 18.9415 17.0132 19.0306C17.0453 19.1197 17.094 19.2007 17.1563 19.2683C17.2185 19.336 17.293 19.389 17.375 19.4239C17.457 19.4588 17.5447 19.4749 17.6327 19.4712C17.7207 19.4675 17.807 19.4441 17.8863 19.4024C17.9655 19.3607 18.036 19.3017 18.0933 19.229L21.7222 15.2776L18.0933 11.354Z" fill="#5A5A5A"/>
</g>
<defs>
<clipPath id="clip0_900_6323">
<rect width="23" height="25" fill="white"/>
</clipPath>
</defs>
</svg>
