<svg width="25" height="25" viewBox="0 0 25 25" fill="none" xmlns="http://www.w3.org/2000/svg">
<g id="iwwa:option">
<g id="Group">
<path id="Vector" d="M14.3674 6.2549C14.3675 6.50018 14.3193 6.74308 14.2255 6.96972C14.1317 7.19636 13.9942 7.40231 13.8208 7.57581C13.6474 7.7493 13.4415 7.88695 13.215 7.98089C12.9884 8.07483 12.7455 8.12322 12.5002 8.1233C12.255 8.12337 12.0121 8.07514 11.7854 7.98135C11.5588 7.88755 11.3528 7.75004 11.1793 7.57665C11.0058 7.40327 10.8682 7.19741 10.7742 6.97083C10.6803 6.74424 10.6319 6.50138 10.6318 6.2561C10.6317 5.76072 10.8283 5.28558 11.1785 4.93519C11.5286 4.58479 12.0037 4.38785 12.499 4.3877C12.9944 4.38754 13.4696 4.58417 13.8199 4.93434C14.1703 5.28451 14.3673 5.75952 14.3674 6.2549Z" fill="black"/>
<path id="Vector_2" d="M12.5 14.5323C13.5312 14.5323 14.3672 13.6963 14.3672 12.6651C14.3672 11.6338 13.5312 10.7979 12.5 10.7979C11.4688 10.7979 10.6328 11.6338 10.6328 12.6651C10.6328 13.6963 11.4688 14.5323 12.5 14.5323Z" fill="black"/>
<path id="Vector_3" d="M12.5 20.9444C13.5312 20.9444 14.3672 20.1084 14.3672 19.0772C14.3672 18.0459 13.5312 17.21 12.5 17.21C11.4688 17.21 10.6328 18.0459 10.6328 19.0772C10.6328 20.1084 11.4688 20.9444 12.5 20.9444Z" fill="black"/>
</g>
</g>
</svg>
