<svg width="40" height="40" viewBox="0 0 40 40" fill="none" xmlns="http://www.w3.org/2000/svg">
<g id="lets-icons:back-light">
<path id="Vector" d="M6.66661 16.6667L6.07661 17.2567L5.48828 16.6667L6.07661 16.0767L6.66661 16.6667ZM34.1666 30.0001C34.1666 30.2211 34.0788 30.4331 33.9225 30.5893C33.7663 30.7456 33.5543 30.8334 33.3333 30.8334C33.1123 30.8334 32.9003 30.7456 32.744 30.5893C32.5877 30.4331 32.4999 30.2211 32.4999 30.0001H34.1666ZM14.4099 25.5901L6.07661 17.2567L7.25661 16.0767L15.5899 24.4101L14.4099 25.5901ZM6.07661 16.0767L14.4099 7.74341L15.5899 8.92341L7.25661 17.2567L6.07661 16.0767ZM6.66661 15.8334H23.3333V17.5001H6.66661V15.8334ZM34.1666 26.6667V30.0001H32.4999V26.6667H34.1666ZM23.3333 15.8334C26.2065 15.8334 28.962 16.9748 30.9936 19.0064C33.0252 21.0381 34.1666 23.7936 34.1666 26.6667H32.4999C32.4999 24.2356 31.5342 21.904 29.8151 20.1849C28.096 18.4658 25.7644 17.5001 23.3333 17.5001V15.8334Z" fill="white"/>
</g>
</svg>
