<svg width="15" height="18" viewBox="0 0 15 18" fill="none" xmlns="http://www.w3.org/2000/svg">
<g id="Group">
<path id="Vector" fill-rule="evenodd" clip-rule="evenodd" d="M6.67203 0.500977C5.60802 0.501067 4.55946 0.753799 3.61383 1.23809C2.6682 1.72238 1.85292 2.42418 1.23601 3.28495C0.619105 4.14571 0.218458 5.14048 0.0674994 6.18625C-0.0834596 7.23202 0.0196459 8.29848 0.368214 9.29664C0.716782 10.2948 1.3007 11.1957 2.07127 11.9242C2.84183 12.6528 3.77668 13.1878 4.79783 13.4846C5.81898 13.7814 6.89682 13.8315 7.94141 13.6306C8.98601 13.4297 9.96708 12.9837 10.8028 12.3298L13.6696 15.1763C13.8177 15.3183 14.016 15.3968 14.2218 15.395C14.4276 15.3933 14.6245 15.3113 14.7701 15.1668C14.9156 15.0223 14.9982 14.8268 15 14.6224C15.0018 14.418 14.9226 14.2212 14.7796 14.0742L11.9128 11.2276C12.6884 10.2507 13.1713 9.07669 13.3062 7.83997C13.4412 6.60325 13.2228 5.35379 12.676 4.23457C12.1292 3.11535 11.276 2.17159 10.2142 1.51131C9.15245 0.851028 7.92489 0.500893 6.67203 0.500977ZM1.56946 7.12622C1.56946 5.78254 2.10705 4.49389 3.06397 3.54376C4.02089 2.59363 5.31875 2.05986 6.67203 2.05986C8.02532 2.05986 9.32318 2.59363 10.2801 3.54376C11.237 4.49389 11.7746 5.78254 11.7746 7.12622C11.7746 8.4699 11.237 9.75855 10.2801 10.7087C9.32318 11.6588 8.02532 12.1926 6.67203 12.1926C5.31875 12.1926 4.02089 11.6588 3.06397 10.7087C2.10705 9.75855 1.56946 8.4699 1.56946 7.12622Z" fill="#5A5A5A"/>
</g>
</svg>
