<svg width="98" height="20" viewBox="0 0 98 20" fill="none" xmlns="http://www.w3.org/2000/svg">
<path d="M9.17423 6.95703C8.31398 6.95703 7.48897 7.29944 6.88068 7.90893C6.2724 8.51843 5.93066 9.34508 5.93066 10.207C5.93066 11.069 6.2724 11.8956 6.88068 12.5051C7.48897 13.1146 8.31398 13.457 9.17423 13.457C10.0345 13.457 10.8595 13.1146 11.4678 12.5051C12.0761 11.8956 12.4178 11.069 12.4178 10.207C12.4178 9.34508 12.0761 8.51843 11.4678 7.90893C10.8595 7.29944 10.0345 6.95703 9.17423 6.95703Z" fill="white"/>
<path fill-rule="evenodd" clip-rule="evenodd" d="M3.95417 1.2888C7.42332 0.903732 10.9243 0.903732 14.3935 1.2888C16.2887 1.5008 17.8167 2.9958 18.0392 4.9018C18.4503 8.42647 18.4503 11.9871 18.0392 15.5118C17.8167 17.4178 16.2887 18.9128 14.3945 19.1258C10.925 19.5109 7.42365 19.5109 3.95417 19.1258C2.05893 18.9128 0.53096 17.4178 0.308401 15.5128C-0.1028 11.9878 -0.1028 8.4268 0.308401 4.9018C0.53096 2.9958 2.05893 1.5008 3.95417 1.2888ZM14.1639 4.2068C13.8992 4.2068 13.6454 4.31216 13.4582 4.4997C13.271 4.68723 13.1659 4.94159 13.1659 5.2068C13.1659 5.47202 13.271 5.72637 13.4582 5.91391C13.6454 6.10145 13.8992 6.2068 14.1639 6.2068C14.4286 6.2068 14.6825 6.10145 14.8696 5.91391C15.0568 5.72637 15.1619 5.47202 15.1619 5.2068C15.1619 4.94159 15.0568 4.68723 14.8696 4.4997C14.6825 4.31216 14.4286 4.2068 14.1639 4.2068ZM4.43322 10.2068C4.43322 8.94702 4.93267 7.73884 5.82171 6.84805C6.71074 5.95725 7.91653 5.4568 9.17381 5.4568C10.4311 5.4568 11.6369 5.95725 12.5259 6.84805C13.415 7.73884 13.9144 8.94702 13.9144 10.2068C13.9144 11.4666 13.415 12.6748 12.5259 13.5656C11.6369 14.4564 10.4311 14.9568 9.17381 14.9568C7.91653 14.9568 6.71074 14.4564 5.82171 13.5656C4.93267 12.6748 4.43322 11.4666 4.43322 10.2068Z" fill="white"/>
<path d="M95.2839 0H79.5696C78.3866 0 77.4268 0.959821 77.4268 2.14286V17.8571C77.4268 19.0402 78.3866 20 79.5696 20H95.2839C96.4669 20 97.4268 19.0402 97.4268 17.8571V2.14286C97.4268 0.959821 96.4669 0 95.2839 0ZM93.1009 7.08929C93.1098 7.21429 93.1098 7.34375 93.1098 7.46875C93.1098 11.3393 90.1634 15.7991 84.7794 15.7991C83.1187 15.7991 81.5785 15.317 80.2839 14.4866C80.5205 14.5134 80.7482 14.5223 80.9893 14.5223C82.3598 14.5223 83.6187 14.058 84.6232 13.2723C83.3375 13.2455 82.2571 12.4018 81.8866 11.2411C82.3375 11.308 82.7437 11.308 83.208 11.1875C81.8687 10.9152 80.8643 9.73661 80.8643 8.3125V8.27679C81.2527 8.49554 81.708 8.62946 82.1857 8.64732C81.7841 8.38019 81.4549 8.01779 81.2274 7.59247C81 7.16715 80.8813 6.69214 80.8821 6.20982C80.8821 5.66518 81.025 5.16518 81.2794 4.73214C82.7214 6.50893 84.8866 7.66964 87.3152 7.79464C86.9 5.80804 88.3866 4.19643 90.1723 4.19643C91.016 4.19643 91.775 4.54911 92.3107 5.12054C92.9714 4.99554 93.6053 4.75 94.1678 4.41518C93.9491 5.09375 93.4893 5.66518 92.8821 6.02679C93.4714 5.96429 94.0428 5.79911 94.5696 5.57143C94.1723 6.15625 93.6723 6.67411 93.1009 7.08929Z" fill="white"/>
<path d="M56.3268 0H38.5268C38.235 0 37.9552 0.115893 37.7489 0.322183C37.5427 0.528473 37.4268 0.808262 37.4268 1.1V18.9C37.4268 19.1917 37.5427 19.4715 37.7489 19.6778C37.9552 19.8841 38.235 20 38.5268 20H48.1068V12.25H45.5068V9.25H48.1068V7C48.0529 6.47176 48.1153 5.93813 48.2895 5.43654C48.4637 4.93495 48.7455 4.47755 49.1152 4.09641C49.4849 3.71528 49.9335 3.41964 50.4296 3.23024C50.9256 3.04083 51.4571 2.96225 51.9868 3C52.7651 2.99463 53.5431 3.03469 54.3168 3.12V5.82H52.7268C51.4668 5.82 51.2268 6.42 51.2268 7.29V9.22H54.2268L53.8368 12.22H51.2268V20H56.3268C56.4712 20 56.6143 19.9715 56.7477 19.9163C56.8812 19.861 57.0024 19.78 57.1046 19.6778C57.2067 19.5757 57.2877 19.4544 57.343 19.321C57.3983 19.1875 57.4268 19.0445 57.4268 18.9V1.1C57.4268 0.955546 57.3983 0.812506 57.343 0.679048C57.2877 0.54559 57.2067 0.424327 57.1046 0.322183C57.0024 0.220038 56.8812 0.139013 56.7477 0.0837326C56.6143 0.0284524 56.4712 0 56.3268 0Z" fill="white"/>
</svg>
