<svg width="24" height="24" viewBox="0 0 24 24" fill="none" xmlns="http://www.w3.org/2000/svg">
<g id="fluent:library-20-regular">
<path id="Vector" d="M2.3999 4.1975C2.3999 3.2039 3.2051 2.3999 4.1999 2.3999H5.3999C6.3923 2.3999 7.1987 3.2039 7.1987 4.1975V19.7759C7.1987 20.7683 6.3923 21.5723 5.3987 21.5723H4.1987C3.2051 21.5723 2.3999 20.7683 2.3999 19.7759V4.1975ZM4.1999 3.5975C4.04077 3.5975 3.88816 3.66072 3.77564 3.77324C3.66312 3.88576 3.5999 4.03837 3.5999 4.1975V19.7759C3.60022 19.9348 3.66357 20.0871 3.77606 20.1994C3.88855 20.3117 4.04098 20.3747 4.1999 20.3747H5.3999C5.55882 20.3744 5.71113 20.311 5.82339 20.1985C5.93565 20.0861 5.9987 19.9336 5.9987 19.7747V4.1987C5.9987 4.03957 5.93549 3.88696 5.82297 3.77444C5.71044 3.66192 5.55783 3.5987 5.3987 3.5987L4.1999 3.5975ZM8.3975 4.1975C8.3975 3.2039 9.2039 2.3999 10.1975 2.3999H11.3975C12.3911 2.3999 13.1963 3.2039 13.1963 4.1975V19.7759C13.1963 20.7683 12.3911 21.5723 11.3963 21.5723H10.1963C9.2039 21.5723 8.3975 20.7683 8.3975 19.7759V4.1975ZM10.1975 3.5975C10.0384 3.5975 9.88576 3.66072 9.77324 3.77324C9.66072 3.88576 9.5975 4.03837 9.5975 4.1975V19.7759C9.59782 19.9348 9.66117 20.0871 9.77366 20.1994C9.88615 20.3117 10.0386 20.3747 10.1975 20.3747H11.3975C11.5566 20.3747 11.7092 20.3115 11.8218 20.199C11.9343 20.0864 11.9975 19.9338 11.9975 19.7747V4.1987C11.9975 4.03957 11.9343 3.88696 11.8218 3.77444C11.7092 3.66192 11.5566 3.5987 11.3975 3.5987L10.1975 3.5975ZM18.8615 7.3883C18.8067 7.15075 18.7042 6.92682 18.5602 6.73008C18.4162 6.53334 18.2338 6.3679 18.0239 6.24379C17.8141 6.11968 17.5812 6.03949 17.3395 6.00809C17.0977 5.97669 16.8521 5.99472 16.6175 6.0611L15.7235 6.3131C15.2873 6.43708 14.914 6.72113 14.6781 7.10846C14.4423 7.4958 14.3614 7.95787 14.4515 8.4023L16.8551 20.1623C16.9042 20.4006 17.0011 20.6265 17.14 20.8264C17.2789 21.0262 17.4568 21.1958 17.6631 21.3249C17.8694 21.454 18.0997 21.5399 18.3401 21.5775C18.5805 21.6151 18.8261 21.6035 19.0619 21.5435L20.2439 21.2435C21.1919 21.0035 21.7727 20.0507 21.5543 19.0991L18.8615 7.3883ZM16.9439 7.2143C17.0221 7.19204 17.104 7.1859 17.1846 7.19626C17.2653 7.20662 17.343 7.23325 17.413 7.27455C17.483 7.31585 17.5439 7.37095 17.592 7.4365C17.6401 7.50206 17.6743 7.5767 17.6927 7.6559L20.3843 19.3679C20.4189 19.5204 20.3925 19.6803 20.311 19.8136C20.2294 19.947 20.099 20.0432 19.9475 20.0819L18.7655 20.3819C18.6869 20.4019 18.6052 20.4058 18.5251 20.3933C18.445 20.3808 18.3682 20.3523 18.2995 20.3093C18.2307 20.2664 18.1714 20.2099 18.1251 20.1434C18.0787 20.0769 18.0464 20.0017 18.0299 19.9223L15.6263 8.1623C15.5964 8.01427 15.6233 7.86039 15.7018 7.73138C15.7804 7.60236 15.9047 7.50771 16.0499 7.4663L16.9439 7.2143Z" fill="black"/>
</g>
</svg>
