<svg width="35" height="35" viewBox="0 0 35 35" fill="none" xmlns="http://www.w3.org/2000/svg">
<g id="lets-icons:back-light">
<path id="Vector" d="M5.83329 14.5833L5.31704 15.0996L4.80225 14.5833L5.31704 14.0671L5.83329 14.5833ZM29.8958 26.25C29.8958 26.4434 29.819 26.6288 29.6822 26.7656C29.5455 26.9023 29.36 26.9791 29.1666 26.9791C28.9732 26.9791 28.7878 26.9023 28.651 26.7656C28.5143 26.6288 28.4375 26.4434 28.4375 26.25H29.8958ZM12.6087 22.3912L5.31704 15.0996L6.34954 14.0671L13.6412 21.3587L12.6087 22.3912ZM5.31704 14.0671L12.6087 6.77539L13.6412 7.80789L6.34954 15.0996L5.31704 14.0671ZM5.83329 13.8541H20.4166V15.3125H5.83329V13.8541ZM29.8958 23.3333V26.25H28.4375V23.3333H29.8958ZM20.4166 13.8541C22.9307 13.8541 25.3417 14.8528 27.1194 16.6305C28.8971 18.4082 29.8958 20.8193 29.8958 23.3333H28.4375C28.4375 21.2061 27.5924 19.1659 26.0882 17.6617C24.584 16.1575 22.5439 15.3125 20.4166 15.3125V13.8541Z" fill="black"/>
</g>
</svg>
