<svg width="45" height="41" viewBox="0 0 45 41" fill="none" xmlns="http://www.w3.org/2000/svg">
<g id="mdi:cards">
<path id="Vector" d="M42.3335 4.91873L39.4464 3.7404V22.7409L44.682 10.4106C45.5654 8.26434 44.5527 5.80247 42.3335 4.91873ZM0.31963 12.7041L11.0062 37.8488C11.3209 38.6138 11.8577 39.2723 12.5506 39.7434C13.2434 40.2144 14.0621 40.4774 14.906 40.5C15.4662 40.5 16.0479 40.3948 16.6081 40.1633L32.4872 33.7457C34.1031 33.0934 35.0942 31.5363 35.1373 29.9792C35.1588 29.4321 35.0511 28.8219 34.8572 28.2749L24.0844 3.13019C23.7809 2.35945 23.2463 1.69609 22.5505 1.22683C21.8548 0.757566 21.0302 0.504251 20.1847 0.5C19.6245 0.5 19.0643 0.62625 18.5257 0.815624L2.6681 7.2333C1.61401 7.65486 0.774482 8.46797 0.334092 9.49386C-0.106297 10.5198 -0.111499 11.6745 0.31963 12.7041ZM35.1158 4.70831C35.1158 3.5922 34.6618 2.5218 33.8536 1.73259C33.0455 0.943374 31.9495 0.5 30.8066 0.5H27.6825L35.1158 18.0487" fill="white"/>
</g>
</svg>
