<svg width="45" height="40" viewBox="0 0 45 40" fill="none" xmlns="http://www.w3.org/2000/svg">
<g id="mdi:cards">
<path id="Vector" d="M42.3335 4.41873L39.4464 3.2404V22.2409L44.682 9.91057C45.5654 7.76433 44.5527 5.30247 42.3335 4.41873ZM0.31963 12.2041L11.0062 37.3488C11.3209 38.1138 11.8577 38.7723 12.5506 39.2434C13.2434 39.7144 14.0621 39.9774 14.906 40C15.4662 40 16.0479 39.8948 16.6081 39.6633L32.4872 33.2457C34.1031 32.5934 35.0942 31.0363 35.1373 29.4792C35.1588 28.9321 35.0511 28.3219 34.8572 27.7749L24.0844 2.63019C23.7809 1.85945 23.2463 1.19609 22.5505 0.726826C21.8548 0.257566 21.0302 0.0042506 20.1847 0C19.6245 0 19.0643 0.12625 18.5257 0.315624L2.6681 6.7333C1.61401 7.15486 0.774482 7.96797 0.334093 8.99386C-0.106297 10.0198 -0.111499 11.1745 0.31963 12.2041ZM35.1158 4.20831C35.1158 3.0922 34.6618 2.0218 33.8536 1.23259C33.0455 0.443374 31.9495 0 30.8066 0H27.6825L35.1158 17.5487" fill="#5A5A5A"/>
</g>
</svg>
