<svg width="30" height="31" viewBox="0 0 30 31" fill="none" xmlns="http://www.w3.org/2000/svg">
<g id="devicon:google" clip-path="url(#clip0_719_3575)">
<path id="Vector" d="M10.4508 1.31992C7.45335 2.35977 4.86834 4.33344 3.07548 6.95102C1.28262 9.5686 0.376419 12.6921 0.489976 15.8628C0.603533 19.0335 1.73087 22.0842 3.70638 24.5668C5.6819 27.0494 8.40148 28.8331 11.4657 29.6559C13.9499 30.2969 16.5526 30.325 19.05 29.7379C21.3125 29.2297 23.4042 28.1427 25.1203 26.5832C26.9065 24.9106 28.2029 22.7828 28.8703 20.4285C29.5958 17.8684 29.7249 15.176 29.2477 12.5582H15.2977V18.3449H23.3766C23.2151 19.2679 22.8691 20.1487 22.3593 20.9348C21.8495 21.7209 21.1863 22.3961 20.4094 22.9199C19.4229 23.5725 18.3108 24.0116 17.1446 24.209C15.9749 24.4265 14.7752 24.4265 13.6055 24.209C12.42 23.9639 11.2985 23.4746 10.3125 22.7723C8.72851 21.651 7.53912 20.058 6.9141 18.2207C6.2785 16.349 6.2785 14.3198 6.9141 12.448C7.359 11.1361 8.09449 9.94149 9.06566 8.95351C10.177 7.80214 11.5841 6.97913 13.1324 6.57479C14.6808 6.17044 16.3106 6.20038 17.843 6.66133C19.0401 7.02881 20.1348 7.67087 21.0399 8.53633C21.9508 7.63008 22.8602 6.72148 23.768 5.81055C24.2368 5.3207 24.7477 4.8543 25.2094 4.35273C23.8279 3.06713 22.2063 2.06677 20.4375 1.40898C17.2165 0.239428 13.6922 0.207997 10.4508 1.31992Z" fill="white"/>
<path id="Vector_2" d="M10.4509 1.32008C13.692 0.207404 17.2163 0.238007 20.4376 1.4068C22.2067 2.06906 23.8276 3.07423 25.2071 4.36461C24.7384 4.86618 24.2438 5.33493 23.7657 5.82243C22.8563 6.73024 21.9478 7.63493 21.0399 8.53649C20.1349 7.67103 19.0402 7.02897 17.8431 6.66149C16.3111 6.19893 14.6814 6.16726 13.1326 6.56995C11.5839 6.97264 10.176 7.79413 9.06338 8.9443C8.09221 9.93228 7.35672 11.1268 6.91182 12.4388L2.05322 8.67711C3.7923 5.22843 6.80342 2.59045 10.4509 1.32008Z" fill="#E33629"/>
<path id="Vector_3" d="M0.764251 12.4036C1.02539 11.1093 1.45895 9.85597 2.05331 8.677L6.91191 12.4481C6.27632 14.3198 6.27632 16.349 6.91191 18.2208C5.29316 19.4708 3.67363 20.727 2.05331 21.9895C0.565385 19.0277 0.111593 15.6532 0.764251 12.4036Z" fill="#F8BD00"/>
<path id="Vector_4" d="M15.2974 12.5559H29.2474C29.7246 15.1737 29.5955 17.8661 28.8701 20.4262C28.2027 22.7805 26.9062 24.9083 25.1201 26.5809C23.5521 25.3575 21.9771 24.1434 20.4091 22.92C21.1865 22.3956 21.85 21.7197 22.3599 20.9328C22.8697 20.1458 23.2155 19.2641 23.3763 18.3403H15.2974C15.2951 16.4137 15.2974 14.4848 15.2974 12.5559Z" fill="#587DBD"/>
<path id="Vector_5" d="M2.05078 21.9895C3.67109 20.7395 5.29062 19.4832 6.90937 18.2207C7.53564 20.0587 8.72673 21.6517 10.3125 22.7723C11.3016 23.4713 12.4255 23.9566 13.6125 24.1973C14.7822 24.4148 15.9819 24.4148 17.1516 24.1973C18.3178 23.9999 19.4299 23.5608 20.4164 22.9082C21.9844 24.1316 23.5594 25.3457 25.1273 26.5691C23.4115 28.1294 21.3197 29.2173 19.057 29.7262C16.5596 30.3133 13.9569 30.2851 11.4727 29.6441C9.50789 29.1195 7.67268 28.1948 6.08203 26.9277C4.39842 25.5911 3.02333 23.9066 2.05078 21.9895Z" fill="#319F43"/>
</g>
<defs>
<clipPath id="clip0_719_3575">
<rect width="30" height="30" fill="white" transform="translate(0 0.333252)"/>
</clipPath>
</defs>
</svg>
