<svg width="30" height="31" viewBox="0 0 30 31" fill="none" xmlns="http://www.w3.org/2000/svg">
<path id="Vector" d="M15.0467 24.2167C15.4156 24.2167 15.7267 24.09 15.98 23.8367C16.2333 23.5833 16.36 23.2722 16.36 22.9033C16.36 22.5344 16.2322 22.2233 15.9767 21.97C15.7233 21.7167 15.4122 21.59 15.0433 21.59C14.6744 21.59 14.3633 21.7172 14.11 21.9717C13.8567 22.2261 13.7306 22.5372 13.7317 22.905C13.7317 23.2739 13.8583 23.585 14.1117 23.8383C14.3672 24.0917 14.6789 24.2183 15.0467 24.2183M14.185 18.6983H15.795C15.8372 17.9739 15.9733 17.385 16.2033 16.9317C16.4333 16.4794 16.9061 15.9017 17.6217 15.1983C18.3661 14.455 18.9194 13.7889 19.2817 13.2C19.6439 12.6111 19.8256 11.93 19.8267 11.1567C19.8267 9.84333 19.3656 8.79667 18.4433 8.01667C17.52 7.23667 16.4278 6.84667 15.1667 6.84667C13.9678 6.84667 12.95 7.17222 12.1133 7.82333C11.2767 8.47556 10.6639 9.22444 10.275 10.07L11.8083 10.705C12.075 10.0983 12.4567 9.56222 12.9533 9.09667C13.45 8.63 14.1667 8.39667 15.1033 8.39667C16.1833 8.39667 16.9722 8.69333 17.47 9.28667C17.9689 9.88 18.2183 10.5322 18.2183 11.2433C18.2183 11.8211 18.0622 12.3367 17.75 12.79C17.4389 13.2444 17.0333 13.7011 16.5333 14.16C15.5667 15.0511 14.9333 15.8067 14.6333 16.4267C14.3333 17.0467 14.1839 17.8039 14.185 18.6983ZM15.005 30.5C12.9317 30.5 10.9817 30.1067 9.155 29.32C7.32944 28.5322 5.74111 27.4633 4.39 26.1133C3.03889 24.7633 1.96944 23.1767 1.18167 21.3533C0.393889 19.53 0 17.5806 0 15.505C0 13.4294 0.393889 11.4794 1.18167 9.655C1.96833 7.82944 3.03556 6.24111 4.38333 4.89C5.73111 3.53889 7.31833 2.46944 9.145 1.68167C10.9717 0.893889 12.9217 0.5 14.995 0.5C17.0683 0.5 19.0183 0.893889 20.845 1.68167C22.6706 2.46833 24.2589 3.53611 25.61 4.885C26.9611 6.23389 28.0306 7.82111 28.8183 9.64667C29.6061 11.4722 30 13.4217 30 15.495C30 17.5683 29.6067 19.5183 28.82 21.345C28.0333 23.1717 26.9644 24.76 25.6133 26.11C24.2622 27.46 22.6756 28.5294 20.8533 29.3183C19.0311 30.1072 17.0817 30.5011 15.005 30.5ZM15 28.8333C18.7222 28.8333 21.875 27.5417 24.4583 24.9583C27.0417 22.375 28.3333 19.2222 28.3333 15.5C28.3333 11.7778 27.0417 8.625 24.4583 6.04167C21.875 3.45833 18.7222 2.16667 15 2.16667C11.2778 2.16667 8.125 3.45833 5.54167 6.04167C2.95833 8.625 1.66667 11.7778 1.66667 15.5C1.66667 19.2222 2.95833 22.375 5.54167 24.9583C8.125 27.5417 11.2778 28.8333 15 28.8333Z" fill="black"/>
</svg>
