<svg width="77" height="74" viewBox="0 0 77 74" fill="none" xmlns="http://www.w3.org/2000/svg">
<g id="Vector">
<path d="M75.1623 37.0551H26.2887H75.1623ZM9.03757 37.0551H1.98047H9.03757ZM75.1623 63.3704H52.4245H75.1623ZM35.1734 63.3704H1.98047H35.1734ZM75.1623 10.7399H62.8796H75.1623ZM45.6285 10.7399H1.98047H45.6285ZM54.2521 19.4227C55.3845 19.4227 56.5059 19.1981 57.5522 18.7618C58.5984 18.3254 59.5491 17.6858 60.3499 16.8796C61.1506 16.0733 61.7858 15.1161 62.2192 14.0627C62.6526 13.0092 62.8756 11.8802 62.8756 10.7399C62.8756 9.59968 62.6526 8.4706 62.2192 7.41716C61.7858 6.36371 61.1506 5.40653 60.3499 4.60026C59.5491 3.79399 58.5984 3.15442 57.5522 2.71807C56.5059 2.28172 55.3845 2.05713 54.2521 2.05713C51.9649 2.05713 49.7715 2.97192 48.1543 4.60026C46.537 6.2286 45.6285 8.4371 45.6285 10.7399C45.6285 13.0427 46.537 15.2512 48.1543 16.8796C49.7715 18.5079 51.9649 19.4227 54.2521 19.4227ZM17.6612 45.7379C19.9483 45.7379 22.1417 44.8231 23.759 43.1948C25.3762 41.5664 26.2847 39.358 26.2847 37.0551C26.2847 34.7523 25.3762 32.5438 23.759 30.9155C22.1417 29.2871 19.9483 28.3723 17.6612 28.3723C15.374 28.3723 13.1806 29.2871 11.5634 30.9155C9.94612 32.5438 9.03757 34.7523 9.03757 37.0551C9.03757 39.358 9.94612 41.5664 11.5634 43.1948C13.1806 44.8231 15.374 45.7379 17.6612 45.7379ZM43.797 72.0571C46.0846 72.0571 48.2785 71.1421 49.8961 69.5134C51.5138 67.8847 52.4245 65.6737 52.4245 63.3704C52.4245 61.067 51.5138 58.86 49.8961 57.2313C48.2785 55.6026 46.0846 54.6876 43.797 54.6876C41.5098 54.6876 39.3164 55.6024 37.6992 57.2307C36.0819 58.859 35.1734 61.0675 35.1734 63.3704C35.1734 65.6732 36.0819 67.8817 37.6992 69.51C39.3164 71.1384 41.5098 72.0571 43.797 72.0571Z" fill="url(#paint0_linear_5_36)"/>
<path d="M75.1623 37.0551H26.2887M9.03757 37.0551H1.98047M9.03757 37.0551C9.03757 34.7523 9.94612 32.5438 11.5634 30.9155C13.1806 29.2871 15.374 28.3723 17.6612 28.3723C19.9483 28.3723 22.1417 29.2871 23.759 30.9155C25.3762 32.5438 26.2847 34.7523 26.2847 37.0551C26.2847 39.358 25.3762 41.5664 23.759 43.1948C22.1417 44.8231 19.9483 45.7379 17.6612 45.7379C15.374 45.7379 13.1806 44.8231 11.5634 43.1948C9.94612 41.5664 9.03757 39.358 9.03757 37.0551ZM75.1623 63.3704H52.4245M52.4245 63.3704C52.4245 65.6737 51.5138 67.8847 49.8961 69.5134C48.2785 71.1421 46.0846 72.0571 43.797 72.0571C41.5098 72.0571 39.3164 71.1383 37.6992 69.51C36.0819 67.8817 35.1734 65.6732 35.1734 63.3704M52.4245 63.3704C52.4245 61.067 51.5138 58.86 49.8961 57.2313C48.2785 55.6026 46.0846 54.6876 43.797 54.6876C41.5098 54.6876 39.3164 55.6024 37.6992 57.2307C36.0819 58.859 35.1734 61.0675 35.1734 63.3704M35.1734 63.3704H1.98047M75.1623 10.7399H62.8796M45.6285 10.7399H1.98047M45.6285 10.7399C45.6285 8.4371 46.537 6.2286 48.1543 4.60026C49.7715 2.97192 51.9649 2.05713 54.2521 2.05713C55.3845 2.05713 56.5059 2.28172 57.5522 2.71807C58.5984 3.15442 59.5491 3.79399 60.3499 4.60026C61.1506 5.40653 61.7858 6.36371 62.2192 7.41716C62.6526 8.4706 62.8756 9.59968 62.8756 10.7399C62.8756 11.8802 62.6526 13.0092 62.2192 14.0627C61.7858 15.1161 61.1506 16.0733 60.3499 16.8796C59.5491 17.6858 58.5984 18.3254 57.5522 18.7618C56.5059 19.1981 55.3845 19.4227 54.2521 19.4227C51.9649 19.4227 49.7715 18.5079 48.1543 16.8796C46.537 15.2512 45.6285 13.0427 45.6285 10.7399Z" stroke="black" stroke-width="3" stroke-miterlimit="10" stroke-linecap="round"/>
</g>
<defs>
<linearGradient id="paint0_linear_5_36" x1="38.5714" y1="2.05713" x2="38.5714" y2="72.0571" gradientUnits="userSpaceOnUse">
<stop stop-color="#D0D3F2" stop-opacity="0.7"/>
<stop offset="1" stop-color="#6665B8" stop-opacity="0.6"/>
</linearGradient>
</defs>
</svg>
