<svg width="81" height="74" viewBox="0 0 81 74" fill="none" xmlns="http://www.w3.org/2000/svg">
<g id="Group">
<path id="Vector" d="M1.6825 36.5571C1.6825 20.0566 1.6825 11.8082 7.37583 6.68268C13.0769 1.55713 22.2392 1.55713 40.5714 1.55713C58.9036 1.55713 68.0697 1.55713 73.763 6.68268C79.4564 11.8082 79.4603 20.0605 79.4603 36.5571C79.4603 53.0538 79.4603 61.306 73.763 66.4316C68.0736 71.5571 58.9036 71.5571 40.5714 71.5571C22.2392 71.5571 13.073 71.5571 7.37583 66.4316C1.67861 61.306 1.6825 53.0538 1.6825 36.5571Z" fill="url(#paint0_linear_5_27)" stroke="black" stroke-width="3" stroke-linecap="round" stroke-linejoin="round"/>
<g id="Vector_2">
<path d="M26.571 21.0016H23.4599C20.5277 21.0016 19.0616 21.0016 18.1477 21.9116C17.2377 22.8294 17.2377 24.2916 17.2377 27.2238V30.3349C17.2377 33.2671 17.2377 34.7333 18.1477 35.6471C19.0654 36.5571 20.5277 36.5571 23.4599 36.5571H26.571C29.5032 36.5571 30.9693 36.5571 31.8832 35.6471C32.7932 34.7294 32.7932 33.2671 32.7932 30.3349V27.2238C32.7932 24.2916 32.7932 22.8255 31.8832 21.9116C30.9654 21.0016 29.5032 21.0016 26.571 21.0016ZM17.2377 52.1127H32.7932H17.2377ZM48.3488 21.0016H63.9043H48.3488ZM48.3488 36.5571H63.9043H48.3488ZM48.3488 52.1127H63.9043H48.3488Z" fill="url(#paint1_linear_5_27)"/>
<path d="M17.2377 52.1127H32.7932M48.3488 21.0016H63.9043M48.3488 36.5571H63.9043M48.3488 52.1127H63.9043M26.571 21.0016H23.4599C20.5277 21.0016 19.0616 21.0016 18.1477 21.9116C17.2377 22.8294 17.2377 24.2916 17.2377 27.2238V30.3349C17.2377 33.2671 17.2377 34.7333 18.1477 35.6471C19.0654 36.5571 20.5277 36.5571 23.4599 36.5571H26.571C29.5032 36.5571 30.9693 36.5571 31.8832 35.6471C32.7932 34.7294 32.7932 33.2671 32.7932 30.3349V27.2238C32.7932 24.2916 32.7932 22.8255 31.8832 21.9116C30.9654 21.0016 29.5032 21.0016 26.571 21.0016Z" stroke="black" stroke-width="3" stroke-linecap="round" stroke-linejoin="round"/>
</g>
</g>
<defs>
<linearGradient id="paint0_linear_5_27" x1="40.5714" y1="1.55713" x2="40.5714" y2="71.5571" gradientUnits="userSpaceOnUse">
<stop stop-color="#D0D3F2" stop-opacity="0.7"/>
<stop offset="1" stop-color="#6665B8" stop-opacity="0.6"/>
</linearGradient>
<linearGradient id="paint1_linear_5_27" x1="40.571" y1="21.0016" x2="40.571" y2="52.1127" gradientUnits="userSpaceOnUse">
<stop stop-color="#D0D3F2" stop-opacity="0.7"/>
<stop offset="1" stop-color="#6665B8" stop-opacity="0.6"/>
</linearGradient>
</defs>
</svg>
