<svg width="74" height="74" viewBox="0 0 74 74" fill="none" xmlns="http://www.w3.org/2000/svg">
<g id="Vector">
<path d="M3.32326 15.5284C3.32326 10.1386 3.32326 7.44365 4.53773 5.4627C5.21671 4.35323 6.14769 3.42226 7.25716 2.74328C9.2346 1.52881 11.933 1.52881 17.3229 1.52881C22.7127 1.52881 25.4077 1.52881 27.3886 2.74328C28.4981 3.42226 29.4291 4.35323 30.108 5.4627C31.3225 7.44015 31.3225 10.1386 31.3225 15.5284C31.3225 20.9183 31.3225 23.6132 30.108 25.5942C29.4291 26.7036 28.4981 27.6346 27.3886 28.3136C25.4112 29.528 22.7127 29.528 17.3229 29.528C11.933 29.528 9.2381 29.528 7.25716 28.3136C6.14851 27.6348 5.21656 26.7028 4.53773 25.5942C3.32326 23.6167 3.32326 20.9183 3.32326 15.5284ZM7.81014 46.2646C11.4745 42.6002 13.305 40.7697 15.4749 40.2448C16.6896 39.9529 17.9562 39.9529 19.1708 40.2448C21.3408 40.7697 23.1712 42.6002 26.8356 46.2646C30.5 49.929 32.3305 51.7594 32.8555 53.9294C33.1421 55.1447 33.1421 56.41 32.8555 57.6253C32.3305 59.7952 30.5 61.6292 26.8356 65.2901C23.1712 68.951 21.3408 70.7849 19.1708 71.3099C17.9562 71.6018 16.6896 71.6018 15.4749 71.3099C13.305 70.7849 11.4745 68.9545 7.81014 65.2901C4.14574 61.6257 2.31529 59.7952 1.79031 57.6253C1.49845 56.4106 1.49845 55.1441 1.79031 53.9294C2.31529 51.7594 4.14574 49.9255 7.81014 46.2646ZM43.5722 57.5273C43.5722 52.1374 43.5722 49.4425 44.7866 47.4616C45.4656 46.3521 46.3966 45.4211 47.5061 44.7421C49.4835 43.5277 52.1819 43.5277 57.5718 43.5277C62.9616 43.5277 65.6566 43.5277 67.641 44.7421C68.747 45.4211 69.678 46.3521 70.3569 47.4616C71.5714 49.439 71.5714 52.1374 71.5714 57.5273C71.5714 62.9171 71.5714 65.6121 70.3569 67.5965C69.6776 68.7027 68.7472 69.6331 67.641 70.3124C65.6566 71.5269 62.9616 71.5269 57.5718 71.5269C52.1819 71.5269 49.487 71.5269 47.5061 70.3124C46.3978 69.6346 45.4659 68.7039 44.7866 67.5965C43.5722 65.6121 43.5722 62.9171 43.5722 57.5273ZM57.5718 1.52881V29.528V1.52881ZM71.5714 15.5284H43.5722H71.5714Z" fill="url(#paint0_linear_5_20)"/>
<path d="M57.5718 1.52881V29.528M71.5714 15.5284H43.5722M3.32326 15.5284C3.32326 10.1386 3.32326 7.44365 4.53773 5.4627C5.21671 4.35323 6.14769 3.42226 7.25716 2.74328C9.2346 1.52881 11.933 1.52881 17.3229 1.52881C22.7127 1.52881 25.4077 1.52881 27.3886 2.74328C28.4981 3.42226 29.4291 4.35323 30.108 5.4627C31.3225 7.44015 31.3225 10.1386 31.3225 15.5284C31.3225 20.9183 31.3225 23.6132 30.108 25.5942C29.4291 26.7036 28.4981 27.6346 27.3886 28.3136C25.4112 29.528 22.7127 29.528 17.3229 29.528C11.933 29.528 9.2381 29.528 7.25716 28.3136C6.14851 27.6348 5.21656 26.7028 4.53773 25.5942C3.32326 23.6167 3.32326 20.9183 3.32326 15.5284ZM7.81014 46.2646C11.4745 42.6002 13.305 40.7697 15.4749 40.2448C16.6896 39.9529 17.9562 39.9529 19.1708 40.2448C21.3408 40.7697 23.1712 42.6002 26.8356 46.2646C30.5 49.929 32.3305 51.7594 32.8555 53.9294C33.1421 55.1447 33.1421 56.41 32.8555 57.6253C32.3305 59.7952 30.5 61.6292 26.8356 65.2901C23.1712 68.951 21.3408 70.7849 19.1708 71.3099C17.9562 71.6018 16.6896 71.6018 15.4749 71.3099C13.305 70.7849 11.4745 68.9545 7.81014 65.2901C4.14574 61.6257 2.31529 59.7952 1.79031 57.6253C1.49845 56.4106 1.49845 55.1441 1.79031 53.9294C2.31529 51.7594 4.14574 49.9255 7.81014 46.2646ZM43.5722 57.5273C43.5722 52.1374 43.5722 49.4425 44.7866 47.4616C45.4656 46.3521 46.3966 45.4211 47.5061 44.7421C49.4835 43.5277 52.1819 43.5277 57.5718 43.5277C62.9616 43.5277 65.6566 43.5277 67.641 44.7421C68.747 45.4211 69.678 46.3521 70.3569 47.4616C71.5714 49.439 71.5714 52.1374 71.5714 57.5273C71.5714 62.9171 71.5714 65.6121 70.3569 67.5965C69.6776 68.7027 68.7472 69.6331 67.641 70.3124C65.6566 71.5269 62.9616 71.5269 57.5718 71.5269C52.1819 71.5269 49.487 71.5269 47.5061 70.3124C46.3978 69.6346 45.4659 68.7039 44.7866 67.5965C43.5722 65.6121 43.5722 62.9171 43.5722 57.5273Z" stroke="black" stroke-width="3" stroke-linecap="round" stroke-linejoin="round"/>
</g>
<defs>
<linearGradient id="paint0_linear_5_20" x1="36.5714" y1="1.52881" x2="36.5714" y2="71.5288" gradientUnits="userSpaceOnUse">
<stop stop-color="#D0D3F2" stop-opacity="0.7"/>
<stop offset="1" stop-color="#6665B8" stop-opacity="0.6"/>
</linearGradient>
</defs>
</svg>
