<svg width="17" height="18" viewBox="0 0 17 18" fill="none" xmlns="http://www.w3.org/2000/svg">
<g id="ri:eye-line">
<path id="Vector" d="M8.49991 2.38379C12.3192 2.38379 15.4968 5.13212 16.1634 8.75879C15.4975 12.3855 12.3192 15.1338 8.49991 15.1338C4.68057 15.1338 1.50299 12.3855 0.837158 8.75879C1.50299 5.13212 4.68057 2.38379 8.49991 2.38379ZM8.49991 13.7171C9.94465 13.717 11.3466 13.2264 12.4761 12.3256C13.6057 11.4248 14.396 10.1673 14.7177 8.75879C14.3951 7.3512 13.6045 6.09472 12.4751 5.19484C11.3457 4.29496 9.94433 3.80495 8.50026 3.80495C7.05619 3.80495 5.65486 4.29496 4.52545 5.19484C3.39604 6.09472 2.60541 7.3512 2.28287 8.75879C2.60452 10.1671 3.39472 11.4246 4.52414 12.3254C5.65355 13.2261 7.05528 13.7168 8.49991 13.7171ZM8.49991 11.9463C7.65453 11.9463 6.84378 11.6105 6.24601 11.0127C5.64823 10.4149 5.31241 9.60417 5.31241 8.75879C5.31241 7.91341 5.64823 7.10266 6.24601 6.50489C6.84378 5.90711 7.65453 5.57129 8.49991 5.57129C9.34529 5.57129 10.156 5.90711 10.7538 6.50489C11.3516 7.10266 11.6874 7.91341 11.6874 8.75879C11.6874 9.60417 11.3516 10.4149 10.7538 11.0127C10.156 11.6105 9.34529 11.9463 8.49991 11.9463ZM8.49991 10.5296C8.96956 10.5296 9.41998 10.3431 9.75208 10.011C10.0842 9.67886 10.2707 9.22844 10.2707 8.75879C10.2707 8.28913 10.0842 7.83872 9.75208 7.50662C9.41998 7.17452 8.96956 6.98796 8.49991 6.98796C8.03025 6.98796 7.57984 7.17452 7.24774 7.50662C6.91564 7.83872 6.72907 8.28913 6.72907 8.75879C6.72907 9.22844 6.91564 9.67886 7.24774 10.011C7.57984 10.3431 8.03025 10.5296 8.49991 10.5296Z" fill="#5A5A5A"/>
</g>
</svg>
