<svg width="17" height="17" viewBox="0 0 17 17" fill="none" xmlns="http://www.w3.org/2000/svg">
<g id="healthicons:people">
<path id="Vector" d="M6.02091 8.50033C7.39048 8.50033 8.50008 7.39072 8.50008 6.02116C8.50008 4.6516 7.39048 3.54199 6.02091 3.54199C4.65135 3.54199 3.54175 4.6516 3.54175 6.02116C3.54175 7.39072 4.65135 8.50033 6.02091 8.50033ZM13.8126 7.26074C13.8126 8.33705 12.941 9.20866 11.8647 9.20866C11.348 9.20866 10.8526 9.00343 10.4873 8.63813C10.122 8.27282 9.91675 7.77736 9.91675 7.26074C9.91675 6.18443 10.7884 5.31283 11.8647 5.31283C12.941 5.31283 13.8126 6.18443 13.8126 7.26074ZM6.02091 9.20866C6.98921 9.20866 8.56489 9.51005 9.59835 10.11C10.0205 10.5396 10.2709 11.0082 10.2709 11.4753V13.4587H1.41675V11.4753C1.41675 9.96799 4.48419 9.20866 6.02091 9.20866ZM15.5834 13.4587H10.9792V11.4753C10.9792 10.9738 10.7983 10.512 10.5103 10.1001C11.0561 9.97826 11.5934 9.91699 12.0039 9.91699C13.3238 9.91699 15.5834 10.5499 15.5834 11.8058V13.4587Z" fill="#5A5A5A"/>
</g>
</svg>
