<svg width="46" height="46" viewBox="0 0 46 46" fill="none" xmlns="http://www.w3.org/2000/svg">
<g id="+">
<path id="Vector" d="M1 20.4118C1 15.4941 1.00259 11.9379 1.36753 9.22541C1.72729 6.54918 2.41835 4.89012 3.65294 3.65294C4.89012 2.41835 6.54918 1.72729 9.22541 1.36753C11.9379 1.00518 15.4941 1 20.4118 1H25.5882C30.5059 1 34.0621 1.00259 36.7772 1.36753C39.4508 1.72729 41.1099 2.41835 42.3471 3.65294C43.5816 4.89012 44.2727 6.54918 44.6325 9.22541C44.9948 11.9379 45 15.4941 45 20.4118V25.5882C45 30.5059 44.9974 34.0621 44.6325 36.7772C44.2727 39.4508 43.5816 41.1099 42.3471 42.3471C41.1099 43.5816 39.4508 44.2727 36.7772 44.6325C34.0621 44.9948 30.5059 45 25.5882 45H20.4118C15.4941 45 11.9379 44.9974 9.22541 44.6325C6.54918 44.2727 4.89012 43.5816 3.65294 42.3471C2.41835 41.1099 1.72729 39.4508 1.36753 36.7772C1.00518 34.0621 1 30.5059 1 25.5882V20.4118Z" fill="white" stroke="black"/>
<g id="Vector_2">
<path d="M22.9999 12.647V33.3529V12.647ZM33.3529 22.9999H12.647H33.3529Z" fill="white"/>
<path d="M22.9999 12.647V33.3529M33.3529 22.9999H12.647" stroke="black" stroke-linejoin="round"/>
</g>
</g>
</svg>
