<svg width="24" height="25" viewBox="0 0 24 25" fill="none" xmlns="http://www.w3.org/2000/svg">
<g id="ph:question-thin">
<path id="Vector" d="M10.625 17.6807C10.625 17.829 10.581 17.974 10.4986 18.0973C10.4162 18.2207 10.2991 18.3168 10.162 18.3736C10.025 18.4303 9.87417 18.4452 9.72869 18.4163C9.5832 18.3873 9.44956 18.3159 9.34467 18.211C9.23979 18.1061 9.16835 17.9725 9.13942 17.827C9.11048 17.6815 9.12533 17.5307 9.18209 17.3937C9.23886 17.2566 9.33499 17.1395 9.45833 17.0571C9.58166 16.9747 9.72667 16.9307 9.875 16.9307C10.0739 16.9307 10.2647 17.0097 10.4053 17.1503C10.546 17.291 10.625 17.4818 10.625 17.6807ZM9.875 7.93066C8.01407 7.93066 6.5 9.27691 6.5 10.9307V11.3057C6.5 11.4051 6.53951 11.5005 6.60984 11.5708C6.68017 11.6412 6.77555 11.6807 6.875 11.6807C6.97446 11.6807 7.06984 11.6412 7.14017 11.5708C7.2105 11.5005 7.25 11.4051 7.25 11.3057V10.9307C7.25 9.69035 8.4275 8.68066 9.875 8.68066C11.3225 8.68066 12.5 9.69035 12.5 10.9307C12.5 12.171 11.3225 13.1807 9.875 13.1807C9.77555 13.1807 9.68017 13.2202 9.60984 13.2905C9.53951 13.3608 9.5 13.4562 9.5 13.5557V14.3057C9.5 14.4051 9.53951 14.5005 9.60984 14.5708C9.68017 14.6412 9.77555 14.6807 9.875 14.6807C9.97446 14.6807 10.0698 14.6412 10.1402 14.5708C10.2105 14.5005 10.25 14.4051 10.25 14.3057V13.9119C11.9375 13.746 13.25 12.4719 13.25 10.9307C13.25 9.27691 11.7359 7.93066 9.875 7.93066ZM19.25 12.8057C19.25 14.6599 18.7002 16.4724 17.67 18.0141C16.6399 19.5558 15.1757 20.7575 13.4627 21.467C11.7496 22.1766 9.8646 22.3623 8.04603 22.0005C6.22746 21.6388 4.557 20.7459 3.24588 19.4348C1.93476 18.1237 1.04188 16.4532 0.680142 14.6346C0.318406 12.8161 0.504062 10.9311 1.21363 9.21801C1.92321 7.50495 3.12482 6.04077 4.66653 5.01064C6.20824 3.9805 8.0208 3.43066 9.875 3.43066C12.3606 3.43339 14.7436 4.42199 16.5011 6.17955C18.2587 7.93711 19.2473 10.3201 19.25 12.8057ZM18.5 12.8057C18.5 11.0998 17.9942 9.43224 17.0464 8.01387C16.0987 6.5955 14.7517 5.49001 13.1756 4.8372C11.5996 4.1844 9.86544 4.01359 8.19235 4.34639C6.51926 4.67919 4.98244 5.50064 3.77621 6.70687C2.56998 7.9131 1.74853 9.44992 1.41573 11.123C1.08293 12.7961 1.25374 14.5303 1.90654 16.1063C2.55935 17.6823 3.66484 19.0294 5.08321 19.9771C6.50158 20.9248 8.16914 21.4307 9.875 21.4307C12.1617 21.4282 14.3541 20.5187 15.9711 18.9017C17.588 17.2848 18.4975 15.0924 18.5 12.8057Z" fill="black"/>
</g>
</svg>
