<svg width="21" height="18" viewBox="0 0 21 18" fill="none" xmlns="http://www.w3.org/2000/svg">
<path id="Vector" d="M10.5 16.4509C9.11249 15.4999 7.50622 14.8939 5.82189 14.6899C4.6273 14.4536 3.41025 14.342 2.19135 14.3569C2.03539 14.3582 1.8807 14.3295 1.73622 14.2723C1.59173 14.2151 1.46032 14.1306 1.34955 14.0237C1.23879 13.9167 1.15087 13.7895 1.09088 13.6493C1.03088 13.5092 0.999994 13.3588 1 13.2069L1.02157 2.31392C1.02091 2.02165 1.13458 1.74009 1.33946 1.52648C1.54434 1.31287 1.82507 1.18324 2.12459 1.16392C3.36539 1.13991 4.60517 1.24788 5.82189 1.48592C7.50439 1.69728 9.10941 2.30181 10.5 3.24792M10.5 16.4509V3.24792M10.5 16.4509C11.8875 15.4999 13.4938 14.8939 15.1781 14.6899C16.3727 14.4536 17.5898 14.342 18.8086 14.3569C18.9646 14.3582 19.1193 14.3295 19.2638 14.2723C19.4083 14.2151 19.5397 14.1306 19.6504 14.0237C19.7612 13.9167 19.8491 13.7895 19.9091 13.6493C19.9691 13.5092 20 13.3588 20 13.2069L19.9774 2.31392C19.9781 2.02181 19.8646 1.74039 19.6599 1.52681C19.4552 1.31322 19.1747 1.18348 18.8754 1.16392C17.6346 1.13991 16.3948 1.24788 15.1781 1.48592C13.4956 1.69728 11.8906 2.30181 10.5 3.24792" stroke="black" stroke-width="1.2" stroke-linecap="round" stroke-linejoin="round"/>
</svg>
