<svg width="20" height="18" viewBox="0 0 20 18" fill="none" xmlns="http://www.w3.org/2000/svg">
<path id="Vector" d="M18.9912 6.06446L18.5669 6.48872L18.9912 6.06446C18.7615 5.83473 18.4499 5.70566 18.125 5.70566H1.875C1.55011 5.70566 1.23853 5.83473 1.00879 6.06446C0.779062 6.29419 0.65 6.60577 0.65 6.93066V15.6807C0.65 16.0056 0.779062 16.3171 1.00879 16.5469C1.23853 16.7766 1.55011 16.9057 1.875 16.9057H18.125C18.4499 16.9057 18.7615 16.7766 18.9912 16.5469C19.2209 16.3171 19.35 16.0056 19.35 15.6807V6.93066C19.35 6.60577 19.2209 6.29419 18.9912 6.06446ZM0.973439 16.5822L0.549175 17.0065L0.973438 16.5822C0.73433 16.3431 0.6 16.0188 0.6 15.6807V6.93066C0.6 6.59251 0.73433 6.26821 0.973439 6.0291C1.21255 5.78999 1.53685 5.65566 1.875 5.65566H18.125C18.4632 5.65566 18.7875 5.78999 19.0266 6.0291C19.2657 6.26821 19.4 6.59251 19.4 6.93066V15.6807C19.4 16.0188 19.2657 16.3431 19.0266 16.5822C18.7875 16.8213 18.4632 16.9557 18.125 16.9557H1.875C1.53685 16.9557 1.21255 16.8213 0.973439 16.5822ZM3.125 3.20566C3.11837 3.20566 3.11201 3.20303 3.10732 3.19834C3.10263 3.19365 3.1 3.18729 3.1 3.18066C3.1 3.17403 3.10263 3.16768 3.10732 3.16299C3.11201 3.1583 3.11837 3.15566 3.125 3.15566H16.875C16.8816 3.15566 16.888 3.1583 16.8927 3.16299C16.8974 3.16767 16.9 3.17403 16.9 3.18066C16.9 3.1873 16.8974 3.19365 16.8927 3.19834C16.888 3.20303 16.8816 3.20566 16.875 3.20566H3.125ZM5.625 0.705664C5.61837 0.705664 5.61201 0.70303 5.60732 0.698341C5.60263 0.693653 5.6 0.687294 5.6 0.680664C5.6 0.674034 5.60263 0.667675 5.60732 0.662986C5.61201 0.658298 5.61837 0.655664 5.625 0.655664H14.375C14.3816 0.655664 14.388 0.658298 14.3927 0.662987C14.3974 0.667674 14.4 0.674032 14.4 0.680664C14.4 0.687296 14.3974 0.693654 14.3927 0.698341C14.388 0.70303 14.3816 0.705664 14.375 0.705664H5.625Z" fill="black" stroke="black" stroke-width="1.2"/>
</svg>
