<svg width="24" height="24" viewBox="0 0 24 24" fill="none" xmlns="http://www.w3.org/2000/svg">
<g id="fluent:people-community-32-light">
<path id="Vector" d="M7.50014 8.25C8.29579 8.25 9.05885 7.93393 9.62146 7.37132C10.1841 6.80871 10.5001 6.04565 10.5001 5.25C10.5001 4.45435 10.1841 3.69129 9.62146 3.12868C9.05885 2.56607 8.29579 2.25 7.50014 2.25C6.70449 2.25 5.94143 2.56607 5.37882 3.12868C4.81621 3.69129 4.50014 4.45435 4.50014 5.25C4.50014 6.04565 4.81621 6.80871 5.37882 7.37132C5.94143 7.93393 6.70449 8.25 7.50014 8.25ZM7.50014 7.5C7.20467 7.5 6.91209 7.4418 6.6391 7.32873C6.36612 7.21566 6.11808 7.04992 5.90915 6.84099C5.70022 6.63206 5.53449 6.38402 5.42141 6.11104C5.30834 5.83806 5.25014 5.54547 5.25014 5.25C5.25014 4.95453 5.30834 4.66194 5.42141 4.38896C5.53449 4.11598 5.70022 3.86794 5.90915 3.65901C6.11808 3.45008 6.36612 3.28434 6.6391 3.17127C6.91209 3.0582 7.20467 3 7.50014 3C8.09688 3 8.66918 3.23705 9.09113 3.65901C9.51309 4.08097 9.75014 4.65326 9.75014 5.25C9.75014 5.84674 9.51309 6.41903 9.09113 6.84099C8.66918 7.26295 8.09688 7.5 7.50014 7.5ZM16.5001 8.25C17.2958 8.25 18.0589 7.93393 18.6215 7.37132C19.1841 6.80871 19.5001 6.04565 19.5001 5.25C19.5001 4.45435 19.1841 3.69129 18.6215 3.12868C18.0589 2.56607 17.2958 2.25 16.5001 2.25C15.7045 2.25 14.9414 2.56607 14.3788 3.12868C13.8162 3.69129 13.5001 4.45435 13.5001 5.25C13.5001 6.04565 13.8162 6.80871 14.3788 7.37132C14.9414 7.93393 15.7045 8.25 16.5001 8.25ZM16.5001 7.5C16.2047 7.5 15.9121 7.4418 15.6391 7.32873C15.3661 7.21566 15.1181 7.04992 14.9092 6.84099C14.7002 6.63206 14.5345 6.38402 14.4214 6.11104C14.3083 5.83806 14.2501 5.54547 14.2501 5.25C14.2501 4.95453 14.3083 4.66194 14.4214 4.38896C14.5345 4.11598 14.7002 3.86794 14.9092 3.65901C15.1181 3.45008 15.3661 3.28434 15.6391 3.17127C15.9121 3.0582 16.2047 3 16.5001 3C17.0969 3 17.6692 3.23705 18.0911 3.65901C18.5131 4.08097 18.7501 4.65326 18.7501 5.25C18.7501 5.84674 18.5131 6.41903 18.0911 6.84099C17.6692 7.26295 17.0969 7.5 16.5001 7.5ZM15.0001 11.25C15.0001 12.0456 14.6841 12.8087 14.1215 13.3713C13.5589 13.9339 12.7958 14.25 12.0001 14.25C11.2045 14.25 10.4414 13.9339 9.87882 13.3713C9.31621 12.8087 9.00014 12.0456 9.00014 11.25C9.00014 10.4544 9.31621 9.69129 9.87882 9.12868C10.4414 8.56607 11.2045 8.25 12.0001 8.25C12.7958 8.25 13.5589 8.56607 14.1215 9.12868C14.6841 9.69129 15.0001 10.4544 15.0001 11.25ZM14.2501 11.25C14.2501 10.6533 14.0131 10.081 13.5911 9.65901C13.1692 9.23705 12.5969 9 12.0001 9C11.4034 9 10.8311 9.23705 10.4092 9.65901C9.9872 10.081 9.75014 10.6533 9.75014 11.25C9.75014 11.8467 9.9872 12.419 10.4092 12.841C10.8311 13.2629 11.4034 13.5 12.0001 13.5C12.5969 13.5 13.1692 13.2629 13.5911 12.841C14.0131 12.419 14.2501 11.8467 14.2501 11.25ZM6.18389 17.6287C6.15467 17.3936 6.17575 17.1549 6.24576 16.9285C6.31576 16.702 6.43308 16.4931 6.58995 16.3155C6.74681 16.1378 6.93963 15.9955 7.15564 15.8981C7.37165 15.8006 7.60591 15.7501 7.84289 15.75H16.1559C16.3929 15.7501 16.6271 15.8006 16.8431 15.8981C17.0592 15.9955 17.252 16.1378 17.4088 16.3155C17.5657 16.4931 17.683 16.702 17.753 16.9285C17.823 17.1549 17.8441 17.3936 17.8149 17.6287C17.6467 18.9737 16.9931 20.211 15.9769 21.108C14.9607 22.0051 13.6519 22.5001 12.2964 22.5H11.7024C10.347 22.4999 9.0384 22.0048 8.02235 21.1078C7.00631 20.2108 6.3528 18.9736 6.18464 17.6287M7.84289 16.5C7.28864 16.5 6.86039 16.986 6.92864 17.5358C7.07414 18.6993 7.63953 19.7696 8.51858 20.5456C9.39763 21.3216 10.5298 21.7499 11.7024 21.75H12.2964C13.469 21.7499 14.6012 21.3216 15.4802 20.5456C16.3592 19.7696 16.9246 18.6993 17.0701 17.5358C17.0862 17.4061 17.0745 17.2746 17.0359 17.1498C16.9973 17.0251 16.9327 16.9099 16.8462 16.812C16.7598 16.7141 16.6536 16.6357 16.5346 16.5819C16.4156 16.5281 16.2865 16.5002 16.1559 16.5H7.84289ZM18.6616 16.179C18.5448 15.9453 18.3964 15.7288 18.2206 15.5355C19.1042 15.2611 19.89 14.7379 20.484 14.0286C21.0781 13.3192 21.4551 12.4538 21.5701 11.5357C21.5862 11.4061 21.5745 11.2746 21.5359 11.1498C21.4973 11.0251 21.4327 10.9099 21.3462 10.812C21.2598 10.7141 21.1536 10.6357 21.0346 10.5819C20.9156 10.5281 20.7865 10.5002 20.6559 10.5H16.0576C16.0102 10.2438 15.9387 9.99269 15.8439 9.75H20.6566C20.8936 9.7501 21.1279 9.80057 21.3439 9.89806C21.5599 9.99554 21.7527 10.1378 21.9096 10.3155C22.0665 10.4931 22.1838 10.702 22.2538 10.9285C22.3238 11.1549 22.3449 11.3936 22.3156 11.6287C22.1877 12.651 21.7784 13.6176 21.1336 14.421C20.4887 15.2243 19.6335 15.8329 18.6631 16.179M3.34289 9.75H8.15564C8.06164 9.99 7.99064 10.24 7.94264 10.5H3.34289C2.78864 10.5 2.36039 10.986 2.42864 11.5357C2.54372 12.4539 2.9209 13.3194 3.51506 14.0287C4.10922 14.7381 4.89518 15.2612 5.77889 15.5355C5.60283 15.7287 5.45418 15.9453 5.33714 16.179C4.36682 15.8329 3.5116 15.2243 2.86672 14.421C2.22184 13.6176 1.81263 12.651 1.68464 11.6287C1.65542 11.3936 1.67649 11.155 1.74645 10.9286C1.81641 10.7023 1.93367 10.4934 2.09045 10.3157C2.24723 10.1381 2.43996 9.99582 2.65588 9.89829C2.87179 9.80076 3.10597 9.75021 3.34289 9.75Z" fill="#5A5A5A"/>
</g>
</svg>
