<svg width="17" height="16" viewBox="0 0 17 16" fill="none" xmlns="http://www.w3.org/2000/svg">
<g id="name=dislike">
<path id="Vector" d="M5.55208 9.6276L6.004 9.70277C6.01491 9.63714 6.0114 9.56992 5.99372 9.50578C5.97604 9.44164 5.9446 9.38213 5.9016 9.33136C5.8586 9.28059 5.80506 9.2398 5.7447 9.21181C5.68434 9.18382 5.61862 9.1693 5.55208 9.16927V9.6276ZM15.6354 9.6276V10.0859C15.757 10.0859 15.8736 10.0376 15.9595 9.9517C16.0455 9.86574 16.0938 9.74916 16.0938 9.6276H15.6354ZM13.8021 0.00260448L3.38875 0.00260448V0.919271L13.8021 0.919271V0.00260448ZM2.28875 10.0859L5.55208 10.0859V9.16927L2.28875 9.16927V10.0859ZM5.10017 9.55244L4.36133 13.9845L5.26517 14.1358L6.004 9.70277L5.10017 9.55244ZM5.71708 15.5859H5.91233V14.6693H5.71708V15.5859ZM8.58258 14.1569L10.8889 10.6983L10.1263 10.1895L7.82083 13.649L8.58258 14.1569ZM12.0329 10.0859H15.6354V9.16927H12.0329V10.0859ZM16.0938 9.6276V2.29427H15.1771L15.1771 9.6276H16.0938ZM1.14108 1.84511L0.0410843 7.34511L0.939418 7.52477L2.03942 2.02477L1.14108 1.84511ZM10.8889 10.6983C11.0145 10.5099 11.1846 10.3555 11.3841 10.2487C11.5837 10.1419 11.8066 10.086 12.0329 10.0859V9.16927C11.6557 9.16926 11.2843 9.26238 10.9517 9.44036C10.6191 9.61834 10.3355 9.87567 10.1263 10.1895L10.8889 10.6983ZM4.36133 13.9845C4.32845 14.1815 4.33886 14.3832 4.39185 14.5758C4.44483 14.7683 4.53911 14.947 4.66814 15.0994C4.79716 15.2518 4.95783 15.3743 5.13898 15.4583C5.32012 15.5423 5.5174 15.5859 5.71708 15.5859V14.6693C5.65048 14.6694 5.58465 14.655 5.52418 14.627C5.46371 14.5991 5.41005 14.5583 5.36695 14.5075C5.32384 14.4568 5.29233 14.3972 5.27459 14.333C5.25686 14.2688 5.25333 14.2015 5.26425 14.1358L4.36133 13.9845ZM2.28875 9.16927C2.08532 9.16928 1.88443 9.12416 1.70055 9.03715C1.51667 8.95014 1.35438 8.82341 1.2254 8.6661C1.09641 8.5088 1.00394 8.32483 0.954644 8.12746C0.90535 7.9301 0.899546 7.72425 0.939418 7.52477L0.0410843 7.34511C-0.0253429 7.67745 -0.0163136 8.02039 0.0657578 8.34922C0.14783 8.67805 0.301816 8.98458 0.516623 9.24673C0.731428 9.50888 1.00171 9.72013 1.30799 9.86524C1.61426 10.0104 1.94892 10.0857 2.28783 10.0859L2.28875 9.16927ZM3.38875 0.00260448C2.85885 0.00250053 2.34529 0.186037 1.93548 0.521974C1.52567 0.857909 1.24494 1.32548 1.14108 1.84511L2.03942 2.02477C2.10176 1.71287 2.2703 1.43224 2.51634 1.23066C2.76237 1.02908 3.07068 0.91904 3.38875 0.919271V0.00260448ZM5.91325 15.5859C6.4416 15.586 6.96179 15.4556 7.42762 15.2063C7.89344 14.957 8.29049 14.5965 8.5835 14.1569L7.82083 13.649C7.61155 13.9629 7.32802 14.2202 6.99541 14.3982C6.6628 14.5762 6.2914 14.6693 5.91417 14.6693L5.91325 15.5859ZM13.8021 0.919271C14.1668 0.919271 14.5165 1.06414 14.7744 1.322C15.0322 1.57986 15.1771 1.9296 15.1771 2.29427H16.0938C16.0938 1.99333 16.0345 1.69533 15.9193 1.41729C15.8041 1.13925 15.6353 0.88662 15.4225 0.673819C15.2097 0.461018 14.9571 0.292215 14.6791 0.177049C14.401 0.0618811 14.103 0.00260448 13.8021 0.00260448V0.919271Z" fill="black"/>
<path id="Vector_2" d="M11.9688 9.625L11.9688 0.458333" stroke="black" stroke-width="0.625"/>
</g>
</svg>
