<svg width="21" height="21" viewBox="0 0 21 21" fill="none" xmlns="http://www.w3.org/2000/svg">
<path id="Vector" d="M10.5033 20.5C9.12111 20.5 7.82111 20.2378 6.60333 19.7133C5.3863 19.1881 4.32741 18.4756 3.42667 17.5756C2.52593 16.6756 1.81296 15.6178 1.28778 14.4022C0.762593 13.1867 0.5 11.887 0.5 10.5033C0.5 9.11963 0.762593 7.81963 1.28778 6.60333C1.81222 5.3863 2.5237 4.32741 3.42222 3.42667C4.32074 2.52593 5.37889 1.81296 6.59667 1.28778C7.81445 0.762593 9.11444 0.5 10.4967 0.5C11.8789 0.5 13.1789 0.762593 14.3967 1.28778C15.6137 1.81222 16.6726 2.52407 17.5733 3.42333C18.4741 4.32259 19.187 5.38074 19.7122 6.59778C20.2374 7.81481 20.5 9.11444 20.5 10.4967C20.5 11.8789 20.2378 13.1789 19.7133 14.3967C19.1889 15.6144 18.4763 16.6733 17.5756 17.5733C16.6748 18.4733 15.617 19.1863 14.4022 19.7122C13.1874 20.2381 11.8878 20.5007 10.5033 20.5ZM9.38889 19.3333V17.1667C8.77778 17.1667 8.25482 16.9493 7.82 16.5144C7.38519 16.0796 7.16741 15.5563 7.16667 14.9444V13.8333L1.83333 8.5C1.77778 8.83333 1.72704 9.16667 1.68111 9.5C1.63519 9.83333 1.61185 10.1667 1.61111 10.5C1.61111 12.7407 2.34741 14.7037 3.82 16.3889C5.29259 18.0741 7.14889 19.0556 9.38889 19.3333ZM17.0556 16.5C17.4259 16.0926 17.7593 15.653 18.0556 15.1811C18.3519 14.7093 18.597 14.2185 18.7911 13.7089C18.9852 13.1993 19.1333 12.6759 19.2356 12.1389C19.3378 11.6019 19.3889 11.0556 19.3889 10.5C19.3889 8.67481 18.8878 7.00778 17.8856 5.49889C16.8833 3.99 15.5326 2.90222 13.8333 2.23556V2.72222C13.8333 3.33333 13.6159 3.85667 13.1811 4.29222C12.7463 4.72778 12.223 4.94518 11.6111 4.94444H9.38889V7.16667C9.38889 7.48148 9.28222 7.74556 9.06889 7.95889C8.85556 8.17222 8.59185 8.27852 8.27778 8.27778H6.05556V10.5H12.7222C13.037 10.5 13.3011 10.6067 13.5144 10.82C13.7278 11.0333 13.8341 11.297 13.8333 11.6111V14.9444H14.9444C15.4259 14.9444 15.8611 15.0881 16.25 15.3756C16.6389 15.663 16.9074 16.0378 17.0556 16.5Z" fill="#5A5A5A"/>
</svg>
