<svg width="20" height="20" viewBox="0 0 20 20" fill="none" xmlns="http://www.w3.org/2000/svg">
<path id="Vector" d="M6.15385 1.53855V7.81123L9.90769 9.84519C9.936 9.86068 9.96774 9.86879 10 9.86879C10.0323 9.86879 10.064 9.86068 10.0923 9.84519L13.8462 7.81123V1.53855H6.15385ZM0 2.50015C0 1.83707 0.263392 1.20114 0.732233 0.732276C1.20107 0.263407 1.83696 0 2.5 0H17.5C18.163 0 18.7989 0.263407 19.2678 0.732276C19.7366 1.20114 20 1.83707 20 2.50015V4.28025C20 4.86924 19.8409 5.44729 19.5395 5.95331C19.2381 6.45934 18.8056 6.87453 18.2877 7.15503L12.1446 10.4829C13.1699 10.9699 13.999 11.7912 14.4956 12.8119C14.9922 13.8326 15.1268 14.9919 14.8772 16.0992C14.6277 17.2065 14.0088 18.1959 13.1224 18.9049C12.2359 19.6138 11.1346 20 9.99962 20C8.86458 20 7.76332 19.6138 6.87688 18.9049C5.99043 18.1959 5.37155 17.2065 5.12198 16.0992C4.87241 14.9919 5.007 13.8326 5.50362 12.8119C6.00024 11.7912 6.82934 10.9699 7.85462 10.4829L1.71231 7.15426C1.19454 6.87383 0.762123 6.45875 0.460728 5.95288C0.159333 5.447 0.000152554 4.86911 0 4.28025V2.50015ZM6.53846 15.0009C6.53846 15.919 6.90316 16.7995 7.55232 17.4487C8.20149 18.0979 9.08194 18.4626 10 18.4626C10.9181 18.4626 11.7985 18.0979 12.4477 17.4487C13.0968 16.7995 13.4615 15.919 13.4615 15.0009C13.4615 14.0828 13.0968 13.2023 12.4477 12.5531C11.7985 11.9039 10.9181 11.5391 10 11.5391C9.08194 11.5391 8.20149 11.9039 7.55232 12.5531C6.90316 13.2023 6.53846 14.0828 6.53846 15.0009Z" fill="black"/>
</svg>
