<svg width="20" height="18" viewBox="0 0 20 18" fill="none" xmlns="http://www.w3.org/2000/svg">
<path id="Vector" d="M6 8.5C7.06087 8.5 8.07828 8.07857 8.82843 7.32843C9.57857 6.57828 10 5.56087 10 4.5C10 3.43913 9.57857 2.42172 8.82843 1.67157C8.07828 0.921427 7.06087 0.5 6 0.5C4.93913 0.5 3.92172 0.921427 3.17157 1.67157C2.42143 2.42172 2 3.43913 2 4.5C2 5.56087 2.42143 6.57828 3.17157 7.32843C3.92172 8.07857 4.93913 8.5 6 8.5ZM15 8.5C15.7956 8.5 16.5587 8.18393 17.1213 7.62132C17.6839 7.05871 18 6.29565 18 5.5C18 4.70435 17.6839 3.94129 17.1213 3.37868C16.5587 2.81607 15.7956 2.5 15 2.5C14.2044 2.5 13.4413 2.81607 12.8787 3.37868C12.3161 3.94129 12 4.70435 12 5.5C12 6.29565 12.3161 7.05871 12.8787 7.62132C13.4413 8.18393 14.2044 8.5 15 8.5ZM2.25 10.5C1.65326 10.5 1.08097 10.7371 0.65901 11.159C0.237053 11.581 0 12.1533 0 12.75V13C0 13 0 17.5 6 17.5C12 17.5 12 13 12 13V12.75C12 12.1533 11.7629 11.581 11.341 11.159C10.919 10.7371 10.3467 10.5 9.75 10.5H2.25ZM15 16C13.829 16 12.932 15.819 12.245 15.542C12.6449 14.8672 12.8958 14.1147 12.981 13.335C12.9907 13.2403 12.9971 13.1452 13 13.05V12.75C13.0013 11.9122 12.678 11.1065 12.098 10.502L12.2 10.5H17.8C18.3835 10.5 18.9431 10.7318 19.3556 11.1444C19.7682 11.5569 20 12.1165 20 12.7C20 12.7 20 16 15 16Z" fill="black"/>
</svg>
