<svg width="20" height="22" viewBox="0 0 20 22" fill="none" xmlns="http://www.w3.org/2000/svg">
<path id="Vector" d="M11.7477 0.188262C11.6357 0.104751 11.5028 0.046613 11.3604 0.0187506C11.2181 -0.00911173 11.0703 -0.00588194 10.9296 0.0281676C10.7889 0.0622171 10.6594 0.126088 10.552 0.214397C10.4446 0.302705 10.3624 0.412862 10.3125 0.53558L7.8125 6.6885L5.06705 4.30413C4.97484 4.22397 4.86474 4.16224 4.74399 4.123C4.62323 4.08376 4.49457 4.0679 4.36648 4.07646C4.23839 4.08503 4.11378 4.11782 4.00086 4.17269C3.88794 4.22756 3.78928 4.30325 3.71136 4.39478C1.25 7.28535 0 10.1932 0 13.037C0 15.4141 1.05357 17.6939 2.92893 19.3748C4.8043 21.0557 7.34784 22 10 22C12.6522 22 15.1957 21.0557 17.0711 19.3748C18.9464 17.6939 20 15.4141 20 13.037C20 6.98183 14.2284 2.03689 11.7477 0.188262ZM16.3511 13.9883C16.1154 15.1684 15.4819 16.2556 14.536 17.1032C13.59 17.9509 12.377 18.5185 11.0602 18.7295C11.0103 18.7372 10.9597 18.7409 10.9091 18.7407C10.6811 18.7407 10.4614 18.6638 10.2936 18.5254C10.1258 18.3869 10.0222 18.197 10.0034 17.9934C9.98448 17.7897 10.0517 17.5871 10.1917 17.4257C10.3317 17.2644 10.5342 17.1561 10.7591 17.1223C12.642 16.8381 14.2398 15.4061 14.5591 13.7153C14.5995 13.5022 14.7327 13.3122 14.9294 13.187C15.1261 13.0619 15.3702 13.012 15.608 13.0482C15.8457 13.0844 16.0578 13.2038 16.1973 13.3801C16.3369 13.5564 16.3927 13.7751 16.3523 13.9883H16.3511Z" fill="black"/>
</svg>
