<svg width="26" height="23" viewBox="0 0 26 23" fill="none" xmlns="http://www.w3.org/2000/svg">
<g id="Group">
<path id="Vector" d="M12.4243 12.3335C13.4891 12.3335 14.5104 11.9472 15.2633 11.2595C16.0163 10.5719 16.4393 9.63922 16.4393 8.66674C16.4393 7.69426 16.0163 6.76161 15.2633 6.07396C14.5104 5.38632 13.4891 5 12.4243 5C11.3594 5 10.3381 5.38632 9.58517 6.07396C8.8322 6.76161 8.40918 7.69426 8.40918 8.66674C8.40918 9.63922 8.8322 10.5719 9.58517 11.2595C10.3381 11.9472 11.3594 12.3335 12.4243 12.3335Z" stroke="black" stroke-linecap="round" stroke-linejoin="round"/>
<path id="Vector_2" d="M14.6517 11.6001C14.0049 11.9883 13.2479 12.1951 12.4739 12.1951C11.7 12.1951 10.943 11.9883 10.2962 11.6001C9.34034 11.8835 8.46219 12.3509 7.72104 12.9707C6.97989 13.5906 6.393 14.3484 6 15.1931C6.83431 15.976 7.83055 16.5997 8.9309 17.0281C10.0313 17.4564 11.2138 17.681 12.41 17.6887C13.6061 17.6964 14.792 17.4871 15.8989 17.0729C17.0057 16.6587 18.0115 16.0479 18.8578 15.2759L18.9484 15.1931C18.5548 14.3487 17.9678 13.5912 17.2267 12.9714C16.4856 12.3516 15.6073 11.884 14.6517 11.6001Z" stroke="black" stroke-linecap="round" stroke-linejoin="round"/>
<path id="Vector_3" d="M24.7526 11.5C24.7526 5.42507 19.3597 0.5 12.7076 0.5C6.05555 0.5 0.662598 5.42507 0.662598 11.5C0.662598 17.5749 6.05555 22.5 12.7076 22.5C19.3597 22.5 24.7526 17.5749 24.7526 11.5Z" stroke="black" stroke-linecap="round" stroke-linejoin="round"/>
</g>
</svg>
