<svg width="24" height="24" viewBox="0 0 24 24" fill="none" xmlns="http://www.w3.org/2000/svg">
<g id="carbon:virtual-private-cloud" clip-path="url(#clip0_311_2486)">
<path id="Vector" d="M15 15V12.75C15 11.9544 14.6839 11.1913 14.1213 10.6287C13.5587 10.0661 12.7956 9.75 12 9.75C11.2044 9.75 10.4413 10.0661 9.87868 10.6287C9.31607 11.1913 9 11.9544 9 12.75V15C8.60236 15.0006 8.22117 15.1588 7.94 15.44C7.65882 15.7212 7.5006 16.1024 7.5 16.5V21C7.5006 21.3976 7.65882 21.7788 7.94 22.06C8.22117 22.3412 8.60236 22.4994 9 22.5H15C15.3976 22.4994 15.7788 22.3412 16.06 22.06C16.3412 21.7788 16.4994 21.3976 16.5 21V16.5C16.4994 16.1024 16.3412 15.7212 16.06 15.44C15.7788 15.1588 15.3976 15.0006 15 15ZM10.5 12.75C10.5 12.3522 10.658 11.9706 10.9393 11.6893C11.2206 11.408 11.6022 11.25 12 11.25C12.3978 11.25 12.7794 11.408 13.0607 11.6893C13.342 11.9706 13.5 12.3522 13.5 12.75V15H10.5V12.75ZM9 21V16.5H15L15.0007 21H9Z" fill="#5A5A5A"/>
<path id="Vector_2" d="M19.3716 7.58588C19.0873 6.11272 18.3681 4.75854 17.3068 3.69804C16.2455 2.63753 14.8908 1.91935 13.4174 1.63613C12.4495 1.4492 11.4543 1.45484 10.4886 1.65273C9.52294 1.85062 8.60573 2.23688 7.7894 2.78943C6.97308 3.34198 6.27365 4.05 5.73109 4.873C5.18853 5.696 4.81348 6.61785 4.62738 7.58588C3.2448 7.8351 2.00548 8.59253 1.15308 9.70924C0.300677 10.826 -0.103127 12.2212 0.0210622 13.6205C0.145251 15.0199 0.788448 16.3222 1.82419 17.2713C2.85993 18.2204 4.21327 18.7478 5.61813 18.7496H5.99988V17.2496H5.62113C4.59125 17.2477 3.59929 16.8608 2.84014 16.1649C2.08099 15.4689 1.60953 14.5142 1.51837 13.4884C1.42721 12.4625 1.72295 11.4397 2.34749 10.6208C2.97203 9.80185 3.88022 9.24608 4.89363 9.06263L5.90613 8.87888L6.10038 7.87013C6.36438 6.49914 7.09766 5.26291 8.17421 4.37389C9.25075 3.48487 10.6033 2.99858 11.9995 2.99858C13.3957 2.99858 14.7483 3.48487 15.8248 4.37389C16.9014 5.26291 17.6346 6.49914 17.8986 7.87013L18.0929 8.87888L19.1046 9.06263C20.1177 9.24601 21.0257 9.80149 21.6502 10.62C22.2748 11.4385 22.5708 12.4609 22.4801 13.4865C22.3894 14.5121 21.9187 15.4667 21.1602 16.163C20.4018 16.8592 19.4104 17.2468 18.3809 17.2496H17.9999V18.7496H18.3809C19.7857 18.7476 21.1389 18.2201 22.1745 17.2709C23.2101 16.3217 23.8531 15.0194 23.9772 13.6201C24.1013 12.2208 23.6975 10.8257 22.8451 9.70909C21.9927 8.59246 20.7534 7.83509 19.3709 7.58588" fill="#5A5A5A"/>
</g>
<defs>
<clipPath id="clip0_311_2486">
<rect width="24" height="24" fill="white"/>
</clipPath>
</defs>
</svg>
