<svg width="24" height="22" viewBox="0 0 24 22" fill="none" xmlns="http://www.w3.org/2000/svg">
<path id="Vector" d="M10.7641 0C10.4654 0 10.1667 0.0694738 9.87941 0.173684L1.42285 3.70526C0.860723 3.93724 0.413018 4.38469 0.178166 4.94923C-0.0566865 5.51377 -0.0594607 6.14919 0.170453 6.71579L5.86944 20.5526C6.03778 20.9723 6.32448 21.3331 6.69409 21.5903C7.06371 21.8476 7.50003 21.99 7.94911 22C8.24785 22 8.55807 21.9653 8.85681 21.8263L17.3249 18.2947C17.7336 18.1199 18.084 17.8307 18.3345 17.4613C18.585 17.0918 18.725 16.6578 18.7381 16.2105C18.7496 15.9211 18.6922 15.5853 18.5888 15.2842L12.8438 1.44737C12.6819 1.02324 12.3969 0.658193 12.0258 0.399965C11.6548 0.141736 11.2151 0.00233906 10.7641 0ZM14.7626 0L18.7266 9.66842V2.31579C18.7266 1.7016 18.4845 1.11257 18.0536 0.678279C17.6226 0.243984 17.0381 0 16.4287 0M21.0361 1.78316V12.2389L23.8281 5.45368C23.9426 5.1732 24.001 4.87271 24 4.56943C23.999 4.26616 23.9385 3.96607 23.8222 3.68638C23.7058 3.40669 23.5358 3.15289 23.3219 2.93955C23.1081 2.72621 22.8545 2.55752 22.5757 2.44316M10.7641 2.28105L16.4861 16.1989L7.99507 19.7421L2.2731 5.83579" fill="#5A5A5A"/>
</svg>
