<svg width="36" height="33" viewBox="0 0 36 33" fill="none" xmlns="http://www.w3.org/2000/svg">
<path id="Vector" d="M16.264 0.5C15.8284 0.5 15.3927 0.601053 14.9738 0.752632L2.64134 5.88947C1.82157 6.2269 1.16866 6.87773 0.82617 7.69888C0.483677 8.52003 0.479632 9.44427 0.814923 10.2684L9.12595 30.3947C9.37144 31.0052 9.78954 31.5299 10.3286 31.9041C10.8676 32.2783 11.5039 32.4854 12.1588 32.5C12.5945 32.5 13.0469 32.4495 13.4825 32.2474L25.8318 27.1105C26.4278 26.8563 26.9388 26.4355 27.3041 25.8982C27.6694 25.3609 27.8737 24.7295 27.8928 24.0789C27.9095 23.6579 27.8257 23.1695 27.6749 22.7316L19.2969 2.60526C19.0608 1.98834 18.6451 1.45737 18.104 1.08177C17.5629 0.706161 16.9216 0.503402 16.264 0.5ZM22.0952 0.5L27.876 14.5632V3.86842C27.876 2.97506 27.5229 2.11829 26.8945 1.48659C26.266 0.854886 25.4136 0.5 24.5248 0.5M31.244 3.09368V18.3021L35.3157 8.43263C35.4827 8.02466 35.5678 7.58758 35.5663 7.14645C35.5648 6.70532 35.4767 6.26883 35.307 5.86201C35.1374 5.45518 34.8894 5.08603 34.5775 4.77571C34.2656 4.4654 33.8958 4.22003 33.4893 4.05368M16.264 3.81789L24.6086 24.0621L12.2258 29.2158L3.88129 8.98842" fill="#144250"/>
</svg>
