<svg width="18" height="15" viewBox="0 0 18 15" fill="none" xmlns="http://www.w3.org/2000/svg">
<g id="Property 1=saved">
<path id="saved" fill-rule="evenodd" clip-rule="evenodd" d="M1.38346 1.38118C2.2681 0.496811 3.46776 0 4.71864 0C5.96951 0 7.16918 0.496811 8.05381 1.38118C8.22678 1.55352 8.44944 1.768 8.72179 2.02463C8.99351 1.768 9.21586 1.55352 9.38883 1.38118C10.2698 0.504384 11.4611 0.0106766 12.704 0.00734793C13.9469 0.00401922 15.1409 0.491338 16.0265 1.3634C16.9121 2.23547 17.4178 3.4218 17.4336 4.66461C17.4495 5.90741 16.9742 7.10624 16.1111 8.00058L9.38788 14.7238C9.21096 14.9006 8.97102 15 8.72085 15C8.47067 15 8.23074 14.9006 8.05381 14.7238L1.33063 8.00152C0.468334 7.11221 -0.00956386 5.91941 0.000145092 4.68072C0.00985405 3.44203 0.507333 2.25687 1.38346 1.38118Z" fill="#F96F5D"/>
</g>
</svg>
