<svg width="19" height="16" viewBox="0 0 19 16" fill="none" xmlns="http://www.w3.org/2000/svg">
<g id="Property 1=not saved">
<path id="not saved" fill-rule="evenodd" clip-rule="evenodd" d="M15.2712 7.22586C15.9371 6.54947 16.307 5.63626 16.2996 4.68712C16.2922 3.73798 15.908 2.83066 15.2316 2.16476C14.8967 1.83504 14.5002 1.57452 14.0646 1.39806C13.629 1.22161 13.1629 1.13268 12.6929 1.13635C11.7438 1.14377 10.8365 1.52793 10.1706 2.20431C9.98973 2.38514 9.75994 2.60708 9.48117 2.87015L8.70609 3.60002L7.93101 2.87015C7.65162 2.60645 7.42151 2.38451 7.24069 2.20431C6.56955 1.53317 5.65928 1.15613 4.71015 1.15613C3.76101 1.15613 2.85074 1.53317 2.1796 2.20431C0.797073 3.58778 0.781063 5.8245 2.12874 7.21455L8.70609 13.7919L15.2712 7.22586ZM1.38003 1.40569C1.81731 0.9683 2.33646 0.621336 2.90785 0.384615C3.47924 0.147895 4.09166 0.0260548 4.71015 0.0260548C5.32863 0.0260548 5.94105 0.147895 6.51244 0.384615C7.08383 0.621336 7.60298 0.9683 8.04026 1.40569C8.21166 1.57772 8.43361 1.79182 8.70609 2.04798C8.97732 1.79182 9.19927 1.57741 9.37193 1.40475C10.2483 0.514929 11.4422 0.0096748 12.691 0.000137498C13.9399 -0.00939981 15.1414 0.47756 16.0312 1.35389C16.921 2.23022 17.4263 3.42414 17.4358 4.673C17.4454 5.92186 16.9584 7.12336 16.0821 8.01318L9.37193 14.7243C9.19532 14.9008 8.95582 15 8.70609 15C8.45637 15 8.21687 14.9008 8.04026 14.7243L1.32823 8.01224C0.467491 7.12452 -0.00954665 5.93387 0.00014483 4.69741C0.00983631 3.46095 0.505479 2.27792 1.38003 1.40381V1.40569Z" fill="#F96F5D"/>
</g>
</svg>
