<svg width="40" height="41" viewBox="0 0 40 41" fill="none" xmlns="http://www.w3.org/2000/svg">
<g id="ep:edit">
<path id="Vector" d="M32.5 20.5C32.5 20.1685 32.6317 19.8505 32.8661 19.6161C33.1005 19.3817 33.4185 19.25 33.75 19.25C34.0815 19.25 34.3995 19.3817 34.6339 19.6161C34.8683 19.8505 35 20.1685 35 20.5V34.25C35 34.5815 34.8683 34.8995 34.6339 35.1339C34.3995 35.3683 34.0815 35.5 33.75 35.5H6.25C5.91848 35.5 5.60054 35.3683 5.36612 35.1339C5.1317 34.8995 5 34.5815 5 34.25V6.75C5 6.41848 5.1317 6.10054 5.36612 5.86612C5.60054 5.6317 5.91848 5.5 6.25 5.5H20C20.3315 5.5 20.6495 5.6317 20.8839 5.86612C21.1183 6.10054 21.25 6.41848 21.25 6.75C21.25 7.08152 21.1183 7.39946 20.8839 7.63388C20.6495 7.8683 20.3315 8 20 8H7.5V33H32.5V20.5Z" fill="black"/>
<path id="Vector_2" d="M18.3575 22.1501L20.42 21.8551L33.09 9.18764C33.2094 9.07233 33.3046 8.9344 33.3701 8.78189C33.4356 8.62939 33.4701 8.46536 33.4715 8.29939C33.473 8.13341 33.4413 7.96881 33.3785 7.81519C33.3156 7.66157 33.2228 7.52201 33.1055 7.40464C32.9881 7.28728 32.8485 7.19446 32.6949 7.13161C32.5413 7.06876 32.3767 7.03713 32.2107 7.03857C32.0447 7.04002 31.8807 7.0745 31.7282 7.14001C31.5757 7.20552 31.4378 7.30075 31.3225 7.42014L18.65 20.0876L18.355 22.1501H18.3575ZM34.8575 5.65014C35.2059 5.99839 35.4824 6.41189 35.671 6.86702C35.8596 7.32215 35.9567 7.80998 35.9567 8.30264C35.9567 8.7953 35.8596 9.28313 35.671 9.73825C35.4824 10.1934 35.2059 10.6069 34.8575 10.9551L21.895 23.9176C21.7038 24.1095 21.4555 24.2341 21.1875 24.2726L17.0625 24.8626C16.8702 24.8902 16.6742 24.8727 16.4899 24.8113C16.3057 24.75 16.1382 24.6465 16.0009 24.5092C15.8636 24.3719 15.7601 24.2044 15.6988 24.0202C15.6374 23.8359 15.6199 23.6399 15.6475 23.4476L16.2375 19.3226C16.2753 19.0549 16.399 18.8066 16.59 18.6151L29.555 5.65264C30.2582 4.94962 31.2118 4.55469 32.2062 4.55469C33.2006 4.55469 34.1542 4.94962 34.8575 5.65264V5.65014Z" fill="black"/>
</g>
</svg>
