<svg width="17" height="16" viewBox="0 0 17 16" fill="none" xmlns="http://www.w3.org/2000/svg">
<g id="name=like">
<path id="Vector" d="M4.125 5.96094V15.1276" stroke="black" stroke-width="0.625"/>
<path id="Vector_2" d="M10.5417 5.95833L10.0897 5.88317C10.0788 5.9488 10.0823 6.01602 10.1 6.08015C10.1177 6.14429 10.1491 6.20381 10.1922 6.25458C10.2352 6.30534 10.2887 6.34614 10.3491 6.37413C10.4094 6.40212 10.4751 6.41664 10.5417 6.41667V5.95833ZM0.458333 5.95833V5.5C0.336776 5.5 0.220197 5.54829 0.134243 5.63424C0.0482886 5.7202 0 5.83678 0 5.95833H0.458333ZM2.29167 15.5833H12.705V14.6667H2.29167V15.5833ZM13.805 5.5H10.5417V6.41667H13.805V5.5ZM10.9936 6.0335L11.7324 1.60142L10.8286 1.45017L10.0897 5.88317L10.9936 6.0335ZM10.3767 3.59009e-08H10.1814V0.916667H10.3767V3.59009e-08ZM7.51117 1.42908L5.20483 4.88767L5.9675 5.39642L8.27292 1.93692L7.51117 1.42908ZM4.06083 5.5H0.458333V6.41667H4.06083V5.5ZM0 5.95833V13.2917H0.916667V5.95833H0ZM14.9527 13.7408L16.0527 8.24083L15.1543 8.06117L14.0543 13.5612L14.9527 13.7408ZM5.20483 4.88767C5.07928 5.07601 4.90917 5.23045 4.70961 5.33727C4.51004 5.44408 4.28719 5.49998 4.06083 5.5V6.41667C4.43807 6.41667 4.80947 6.32355 5.14207 6.14558C5.47468 5.9676 5.75821 5.71027 5.9675 5.39642L5.20483 4.88767ZM11.7324 1.60142C11.7653 1.40446 11.7549 1.2027 11.7019 1.01017C11.6489 0.817642 11.5546 0.638964 11.4256 0.48656C11.2966 0.334156 11.1359 0.211683 10.9548 0.127658C10.7736 0.043632 10.5764 6.97787e-05 10.3767 3.59009e-08V0.916667C10.4433 0.916564 10.5091 0.930981 10.5696 0.958913C10.63 0.986846 10.6837 1.02762 10.7268 1.0784C10.7699 1.12919 10.8014 1.18875 10.8192 1.25296C10.8369 1.31716 10.8404 1.38446 10.8295 1.45017L11.7324 1.60142ZM13.805 6.41667C14.0084 6.41665 14.2093 6.46178 14.3932 6.54879C14.5771 6.6358 14.7394 6.76253 14.8684 6.91984C14.9973 7.07714 15.0898 7.26111 15.1391 7.45848C15.1884 7.65584 15.1942 7.86168 15.1543 8.06117L16.0527 8.24083C16.1191 7.90849 16.1101 7.56555 16.028 7.23672C15.9459 6.90789 15.7919 6.60136 15.5771 6.33921C15.3623 6.07705 15.092 5.86581 14.7858 5.7207C14.4795 5.57558 14.1448 5.5002 13.8059 5.5L13.805 6.41667ZM12.705 15.5833C13.2349 15.5834 13.7485 15.3999 14.1583 15.064C14.5681 14.728 14.8488 14.2605 14.9527 13.7408L14.0543 13.5612C13.992 13.8731 13.8234 14.1537 13.5774 14.3553C13.3314 14.5569 13.0231 14.6669 12.705 14.6667V15.5833ZM10.1805 3.59009e-08C9.65215 -7.89951e-05 9.13196 0.130325 8.66613 0.379631C8.20031 0.628937 7.80326 0.989427 7.51025 1.42908L8.27292 1.93692C8.4822 1.62307 8.76573 1.36573 9.09834 1.18776C9.43095 1.00978 9.80235 0.91666 10.1796 0.916667L10.1805 3.59009e-08ZM2.29167 14.6667C1.92699 14.6667 1.57726 14.5218 1.31939 14.2639C1.06153 14.0061 0.916667 13.6563 0.916667 13.2917H0C0 13.5926 0.0592757 13.8906 0.174443 14.1686C0.28961 14.4467 0.458413 14.6993 0.671214 14.9121C0.884015 15.1249 1.13665 15.2937 1.41468 15.4089C1.69272 15.5241 1.99072 15.5833 2.29167 15.5833V14.6667Z" fill="black"/>
</g>
</svg>
