<svg width="22" height="22" viewBox="0 0 22 22" fill="none" xmlns="http://www.w3.org/2000/svg">
<g id="Group">
<path id="Vector" d="M11 14.5866C5.23997 14.5866 4.21997 9.01619 4.03997 4.59673C3.98897 3.36813 3.96397 2.75286 4.43997 2.18515C4.91497 1.61646 5.48397 1.5233 6.62297 1.33697C8.06981 1.10697 9.53387 0.994327 11 1.00022C12.784 1.00022 14.253 1.15258 15.377 1.33697C16.516 1.5233 17.085 1.61646 17.561 2.18515C18.037 2.75383 18.011 3.36813 17.961 4.59673C17.781 9.01619 16.761 14.5866 11.001 14.5866H11Z" stroke="black" stroke-width="1.5"/>
<path id="Vector_2" d="M11 14.5867V17.498" stroke="black" stroke-width="1.5" stroke-linecap="round"/>
<path id="Vector_3" d="M14.5 20.4093H7.5L7.84 18.7634C7.88529 18.5435 8.00768 18.3456 8.18634 18.2033C8.365 18.0611 8.58891 17.9833 8.82 17.9832H13.18C13.4111 17.9833 13.635 18.0611 13.8137 18.2033C13.9923 18.3456 14.1147 18.5435 14.16 18.7634L14.5 20.4093Z" stroke="black" stroke-width="1.5" stroke-linecap="round" stroke-linejoin="round"/>
<path id="Vector_4" d="M18 3.91162L18.949 4.21829C19.939 4.53854 20.434 4.69866 20.717 5.08005C21 5.46144 21 5.96899 21 6.9802V7.05105C21 7.88564 21 8.30391 20.793 8.64551C20.586 8.98711 20.209 9.18993 19.457 9.59656L16.5 11.19M4 3.91162L3.051 4.21829C2.061 4.53854 1.566 4.69866 1.283 5.08005C1 5.46144 1 5.96899 1 6.9802V7.05105C1 7.88564 1 8.30391 1.207 8.64551C1.414 8.98711 1.791 9.18993 2.543 9.59656L5.5 11.19M10.146 4.9044C10.526 4.24158 10.716 3.91162 11 3.91162C11.284 3.91162 11.474 4.24158 11.854 4.9044L11.952 5.0752C12.06 5.26347 12.114 5.35663 12.198 5.41874C12.283 5.48085 12.388 5.50414 12.598 5.54975L12.788 5.59245C13.526 5.75452 13.895 5.83507 13.983 6.10873C14.071 6.3824 13.819 6.66869 13.316 7.23932L13.186 7.38683C13.043 7.54889 12.971 7.62944 12.939 7.73037C12.907 7.8313 12.918 7.93902 12.939 8.15543L12.959 8.35243C13.035 9.11424 13.073 9.49563 12.844 9.66449C12.614 9.83335 12.268 9.67904 11.577 9.37044L11.399 9.29086C11.202 9.20352 11.104 9.15985 11 9.15985C10.896 9.15985 10.798 9.20352 10.601 9.29086L10.423 9.37044C9.732 9.68001 9.386 9.83335 9.156 9.66449C8.926 9.49563 8.965 9.11424 9.041 8.35243L9.061 8.15543C9.082 7.93902 9.093 7.8313 9.061 7.73037C9.029 7.62944 8.957 7.54889 8.814 7.38683L8.684 7.23932C8.181 6.66869 7.929 6.38337 8.017 6.10873C8.105 5.83507 8.474 5.75452 9.212 5.59245L9.402 5.54975C9.612 5.50414 9.717 5.48182 9.802 5.41874C9.886 5.35663 9.94 5.26347 10.048 5.0752L10.146 4.9044Z" stroke="black" stroke-width="1.5"/>
<path id="Vector_5" d="M17 20.4094H5" stroke="black" stroke-width="1.5" stroke-linecap="round"/>
</g>
</svg>
