<svg width="25" height="24" viewBox="0 0 25 24" fill="none" xmlns="http://www.w3.org/2000/svg">
<g id="weui:like-outlined">
<path id="Vector" fill-rule="evenodd" clip-rule="evenodd" d="M18.7852 12.645C19.4922 11.9268 19.885 10.9571 19.8772 9.94931C19.8693 8.94149 19.4614 7.97808 18.7432 7.27101C18.3876 6.92091 17.9665 6.64427 17.5039 6.45691C17.0414 6.26955 16.5465 6.17512 16.0475 6.17902C15.0397 6.18689 14.0762 6.5948 13.3692 7.31301C13.1772 7.50501 12.9332 7.74068 12.6372 8.02001L11.8142 8.79501L10.9912 8.02001C10.6945 7.74001 10.4502 7.50434 10.2582 7.31301C9.54554 6.60038 8.579 6.20002 7.57118 6.20002C6.56336 6.20002 5.59682 6.60038 4.88418 7.31301C3.41618 8.78201 3.39918 11.157 4.83018 12.633L11.8142 19.617L18.7852 12.645ZM4.03518 6.46501C4.49949 6.00058 5.05074 5.63216 5.65746 5.38081C6.26417 5.12945 6.91446 5.00008 7.57118 5.00008C8.2279 5.00008 8.87819 5.12945 9.4849 5.38081C10.0916 5.63216 10.6429 6.00058 11.1072 6.46501C11.2892 6.64768 11.5248 6.87501 11.8142 7.14701C12.1022 6.87501 12.3378 6.64734 12.5212 6.46401C13.4517 5.51918 14.7194 4.98269 16.0455 4.97256C17.3716 4.96243 18.6473 5.4795 19.5922 6.41001C20.537 7.34052 21.0735 8.60826 21.0836 9.93433C21.0938 11.2604 20.5767 12.5362 19.6462 13.481L12.5212 20.607C12.3336 20.7945 12.0793 20.8998 11.8142 20.8998C11.549 20.8998 11.2947 20.7945 11.1072 20.607L3.98018 13.48C3.06622 12.5374 2.55969 11.2731 2.56998 9.96024C2.58027 8.64734 3.10655 7.39117 4.03518 6.46301V6.46501Z" fill="black"/>
</g>
</svg>
