<svg width="24" height="24" viewBox="0 0 24 24" fill="none" xmlns="http://www.w3.org/2000/svg">
<g id="carbon:virtual-private-cloud" clip-path="url(#clip0_1588_2157)">
<path id="Vector" d="M15 15V12.75C15 11.9544 14.6839 11.1913 14.1213 10.6287C13.5587 10.0661 12.7956 9.75 12 9.75C11.2044 9.75 10.4413 10.0661 9.87868 10.6287C9.31607 11.1913 9 11.9544 9 12.75V15C8.60236 15.0006 8.22117 15.1588 7.94 15.44C7.65882 15.7212 7.5006 16.1024 7.5 16.5V21C7.5006 21.3976 7.65882 21.7788 7.94 22.06C8.22117 22.3412 8.60236 22.4994 9 22.5H15C15.3976 22.4994 15.7788 22.3412 16.06 22.06C16.3412 21.7788 16.4994 21.3976 16.5 21V16.5C16.4994 16.1024 16.3412 15.7212 16.06 15.44C15.7788 15.1588 15.3976 15.0006 15 15ZM10.5 12.75C10.5 12.3522 10.658 11.9706 10.9393 11.6893C11.2206 11.408 11.6022 11.25 12 11.25C12.3978 11.25 12.7794 11.408 13.0607 11.6893C13.342 11.9706 13.5 12.3522 13.5 12.75V15H10.5V12.75ZM9 21V16.5H15L15.0007 21H9Z" fill="#5A5A5A"/>
<path id="Vector_2" d="M19.3716 7.58636C19.0873 6.11321 18.3681 4.75903 17.3068 3.69853C16.2455 2.63802 14.8908 1.91984 13.4174 1.63661C12.4495 1.44969 11.4543 1.45533 10.4886 1.65322C9.52294 1.85111 8.60573 2.23737 7.7894 2.78992C6.97308 3.34247 6.27365 4.05048 5.73109 4.87348C5.18853 5.69649 4.81348 6.61834 4.62738 7.58636C3.2448 7.83559 2.00548 8.59302 1.15308 9.70973C0.300677 10.8264 -0.103127 12.2216 0.0210622 13.621C0.145251 15.0204 0.788448 16.3226 1.82419 17.2718C2.85993 18.2209 4.21327 18.7483 5.61813 18.7501H5.99988V17.2501H5.62113C4.59125 17.2482 3.59929 16.8613 2.84014 16.1653C2.08099 15.4694 1.60953 14.5147 1.51837 13.4889C1.42721 12.463 1.72295 11.4402 2.34749 10.6213C2.97203 9.80234 3.88022 9.24656 4.89363 9.06311L5.90613 8.87936L6.10038 7.87061C6.36438 6.49963 7.09766 5.2634 8.17421 4.37438C9.25075 3.48536 10.6033 2.99906 11.9995 2.99906C13.3957 2.99906 14.7483 3.48536 15.8248 4.37438C16.9014 5.2634 17.6346 6.49963 17.8986 7.87061L18.0929 8.87936L19.1046 9.06311C20.1177 9.2465 21.0257 9.80198 21.6502 10.6205C22.2748 11.439 22.5708 12.4614 22.4801 13.487C22.3894 14.5126 21.9187 15.4672 21.1602 16.1635C20.4018 16.8597 19.4104 17.2473 18.3809 17.2501H17.9999V18.7501H18.3809C19.7857 18.7481 21.1389 18.2206 22.1745 17.2714C23.2101 16.3222 23.8531 15.0199 23.9772 13.6206C24.1013 12.2213 23.6975 10.8262 22.8451 9.70958C21.9927 8.59295 20.7534 7.83558 19.3709 7.58636" fill="#5A5A5A"/>
</g>
<defs>
<clipPath id="clip0_1588_2157">
<rect width="24" height="24" fill="white"/>
</clipPath>
</defs>
</svg>
