<svg width="37" height="36" viewBox="0 0 37 36" fill="none" xmlns="http://www.w3.org/2000/svg">
<path id="Vector" d="M18.506 36C16.018 36 13.678 35.528 11.486 34.584C9.29533 33.6387 7.38933 32.356 5.768 30.736C4.14667 29.116 2.86333 27.212 1.918 25.024C0.972667 22.836 0.5 20.4967 0.5 18.006C0.5 15.5153 0.972667 13.1753 1.918 10.986C2.862 8.79533 4.14267 6.88933 5.76 5.268C7.37733 3.64667 9.282 2.36333 11.474 1.418C13.666 0.472667 16.006 0 18.494 0C20.982 0 23.322 0.472667 25.514 1.418C27.7047 2.362 29.6107 3.64333 31.232 5.262C32.8533 6.88067 34.1367 8.78533 35.082 10.976C36.0273 13.1667 36.5 15.506 36.5 17.994C36.5 20.482 36.028 22.822 35.084 25.014C34.14 27.206 32.8573 29.112 31.236 30.732C29.6147 32.352 27.7107 33.6353 25.524 34.582C23.3373 35.5287 20.998 36.0013 18.506 36ZM16.5 33.9V30C15.4 30 14.4587 29.6087 13.676 28.826C12.8933 28.0433 12.5013 27.1013 12.5 26V24L2.9 14.4C2.8 15 2.70867 15.6 2.626 16.2C2.54333 16.8 2.50133 17.4 2.5 18C2.5 22.0333 3.82533 25.5667 6.476 28.6C9.12667 31.6333 12.468 33.4 16.5 33.9ZM30.3 28.8C30.9667 28.0667 31.5667 27.2753 32.1 26.426C32.6333 25.5767 33.0747 24.6933 33.424 23.776C33.7733 22.8587 34.04 21.9167 34.224 20.95C34.408 19.9833 34.5 19 34.5 18C34.5 14.7147 33.598 11.714 31.794 8.998C29.99 6.282 27.5587 4.324 24.5 3.124V4C24.5 5.1 24.1087 6.042 23.326 6.826C22.5433 7.61 21.6013 8.00133 20.5 8H16.5V12C16.5 12.5667 16.308 13.042 15.924 13.426C15.54 13.81 15.0653 14.0013 14.5 14H10.5V18H22.5C23.0667 18 23.542 18.192 23.926 18.576C24.31 18.96 24.5013 19.4347 24.5 20V26H26.5C27.3667 26 28.15 26.2587 28.85 26.776C29.55 27.2933 30.0333 27.968 30.3 28.8Z" fill="#5A5A5A"/>
</svg>
