<svg width="25" height="24" viewBox="0 0 25 24" fill="none" xmlns="http://www.w3.org/2000/svg">
<g id="basil:notification-on-outline">
<path id="Vector" d="M6.92895 2.41307C7.05502 2.2626 7.11707 2.06869 7.10178 1.87298C7.08649 1.67727 6.99508 1.49535 6.84716 1.36628C6.69924 1.23722 6.50662 1.17129 6.31064 1.18266C6.11466 1.19402 5.93095 1.28177 5.79895 1.42707L4.50695 2.90707C3.77433 3.74664 3.36018 4.81704 3.33695 5.93107L3.27995 8.65007C3.27791 8.74856 3.29529 8.84649 3.3311 8.93826C3.36691 9.03004 3.42045 9.11386 3.48866 9.18494C3.55686 9.25602 3.6384 9.31298 3.72861 9.35255C3.81883 9.39212 3.91595 9.41354 4.01445 9.41557C4.11294 9.41761 4.21086 9.40022 4.30264 9.36441C4.39441 9.3286 4.47823 9.27507 4.54932 9.20686C4.6204 9.13866 4.67735 9.05712 4.71692 8.9669C4.75649 8.87669 4.77791 8.77956 4.77995 8.68107L4.83595 5.96307C4.85199 5.2008 5.13552 4.46843 5.63695 3.89407L6.92895 2.41307Z" fill="black"/>
<path id="Vector_2" fill-rule="evenodd" clip-rule="evenodd" d="M6.73695 7.7C6.80411 6.63014 7.27647 5.62608 8.05787 4.89224C8.83928 4.15839 9.87098 3.74993 10.9429 3.75H11.4999V3C11.4999 2.73478 11.6053 2.48043 11.7928 2.29289C11.9804 2.10536 12.2347 2 12.4999 2C12.7652 2 13.0195 2.10536 13.2071 2.29289C13.3946 2.48043 13.4999 2.73478 13.4999 3V3.75H14.0569C15.1289 3.74993 16.1606 4.15839 16.942 4.89224C17.7234 5.62608 18.1958 6.63014 18.2629 7.7L18.4839 11.234C18.5694 12.5812 19.0217 13.8794 19.7919 14.988C19.9513 15.2171 20.0487 15.4835 20.0746 15.7613C20.1005 16.0392 20.0541 16.319 19.9398 16.5736C19.8256 16.8281 19.6474 17.0488 19.4226 17.2142C19.1978 17.3795 18.934 17.4838 18.6569 17.517L15.2499 17.925V19C15.2499 19.7293 14.9602 20.4288 14.4445 20.9445C13.9288 21.4603 13.2293 21.75 12.4999 21.75C11.7706 21.75 11.0711 21.4603 10.5554 20.9445C10.0397 20.4288 9.74995 19.7293 9.74995 19V17.925L6.34295 17.516C6.06604 17.4827 5.80246 17.3784 5.5778 17.2131C5.35313 17.0478 5.17503 16.8273 5.0608 16.5729C4.94657 16.3184 4.90009 16.0388 4.92587 15.7611C4.95165 15.4834 5.04883 15.2171 5.20795 14.988C5.97819 13.8794 6.43052 12.5812 6.51595 11.234L6.73695 7.7ZM10.9429 5.25C10.2525 5.24992 9.58802 5.51297 9.08473 5.98561C8.58144 6.45825 8.2772 7.10493 8.23395 7.794L8.01395 11.328C7.91113 12.9487 7.36681 14.5105 6.43995 15.844C6.42842 15.8606 6.42137 15.8798 6.41949 15.8999C6.4176 15.92 6.42095 15.9403 6.4292 15.9587C6.43746 15.9771 6.45034 15.9931 6.46659 16.005C6.48284 16.017 6.50191 16.0246 6.52195 16.027L10.2589 16.476C11.7479 16.654 13.2519 16.654 14.7409 16.476L18.478 16.027C18.498 16.0246 18.5171 16.017 18.5333 16.005C18.5496 15.9931 18.5624 15.9771 18.5707 15.9587C18.5789 15.9403 18.5823 15.92 18.5804 15.8999C18.5785 15.8798 18.5715 15.8606 18.5599 15.844C17.6334 14.5104 17.0895 12.9486 16.9869 11.328L16.766 7.794C16.7227 7.10493 16.4185 6.45825 15.9152 5.98561C15.4119 5.51297 14.7474 5.24992 14.0569 5.25H10.9429ZM12.4999 20.25C11.8099 20.25 11.2499 19.69 11.2499 19V18.25H13.7499V19C13.7499 19.69 13.1899 20.25 12.4999 20.25Z" fill="black"/>
<path id="Vector_3" d="M18.143 1.35495C17.9932 1.48573 17.9015 1.67065 17.888 1.86905C17.8745 2.06745 17.9403 2.26309 18.071 2.41295L19.363 3.89295C19.8643 4.46772 20.1475 5.20046 20.163 5.96295L20.22 8.67996C20.2241 8.87887 20.3071 9.068 20.4506 9.20575C20.5942 9.34349 20.7866 9.41857 20.9855 9.41446C21.1844 9.41034 21.3736 9.32738 21.5113 9.18383C21.6491 9.04027 21.7241 8.84787 21.72 8.64895L21.663 5.93095C21.6398 4.81693 21.2256 3.74652 20.493 2.90695L19.201 1.42695C19.0702 1.27714 18.8853 1.1854 18.6869 1.1719C18.4885 1.1584 18.2929 1.22424 18.143 1.35495Z" fill="black"/>
</g>
</svg>
