<svg width="25" height="24" viewBox="0 0 25 24" fill="none" xmlns="http://www.w3.org/2000/svg">
<g id="fluent:people-32-light">
<path id="Vector" d="M5 7.875C5 7.43179 5.0873 6.99292 5.25691 6.58344C5.42652 6.17397 5.67512 5.80191 5.98851 5.48851C6.30191 5.17512 6.67397 4.92652 7.08344 4.75691C7.49292 4.5873 7.93179 4.5 8.375 4.5C8.81821 4.5 9.25708 4.5873 9.66656 4.75691C10.076 4.92652 10.4481 5.17512 10.7615 5.48851C11.0749 5.80191 11.3235 6.17397 11.4931 6.58344C11.6627 6.99292 11.75 7.43179 11.75 7.875C11.75 8.77011 11.3944 9.62855 10.7615 10.2615C10.1285 10.8944 9.27011 11.25 8.375 11.25C7.47989 11.25 6.62145 10.8944 5.98851 10.2615C5.35558 9.62855 5 8.77011 5 7.875ZM8.375 3.75C7.28098 3.75 6.23177 4.1846 5.45818 4.95818C4.6846 5.73177 4.25 6.78098 4.25 7.875C4.25 8.96902 4.6846 10.0182 5.45818 10.7918C6.23177 11.5654 7.28098 12 8.375 12C9.46902 12 10.5182 11.5654 11.2918 10.7918C12.0654 10.0182 12.5 8.96902 12.5 7.875C12.5 6.78098 12.0654 5.73177 11.2918 4.95818C10.5182 4.1846 9.46902 3.75 8.375 3.75ZM15.5 9C15.5 8.40326 15.7371 7.83097 16.159 7.40901C16.581 6.98705 17.1533 6.75 17.75 6.75C18.3467 6.75 18.919 6.98705 19.341 7.40901C19.7629 7.83097 20 8.40326 20 9C20 9.59674 19.7629 10.169 19.341 10.591C18.919 11.0129 18.3467 11.25 17.75 11.25C17.1533 11.25 16.581 11.0129 16.159 10.591C15.7371 10.169 15.5 9.59674 15.5 9ZM17.75 6C16.9544 6 16.1913 6.31607 15.6287 6.87868C15.0661 7.44129 14.75 8.20435 14.75 9C14.75 9.79565 15.0661 10.5587 15.6287 11.1213C16.1913 11.6839 16.9544 12 17.75 12C18.5456 12 19.3087 11.6839 19.8713 11.1213C20.4339 10.5587 20.75 9.79565 20.75 9C20.75 8.20435 20.4339 7.44129 19.8713 6.87868C19.3087 6.31607 18.5456 6 17.75 6ZM4.25 13.5C3.65326 13.5 3.08097 13.7371 2.65901 14.159C2.23705 14.581 2 15.1533 2 15.75C2 16.587 2.31275 17.7225 3.28925 18.6473C4.268 19.5743 5.87 20.25 8.37425 20.25C10.8785 20.25 12.482 19.575 13.4608 18.6473C14.4373 17.7225 14.75 16.587 14.75 15.75C14.75 15.1533 14.5129 14.581 14.091 14.159C13.669 13.7371 13.0967 13.5 12.5 13.5H4.25ZM2.75 15.75C2.75 15.3522 2.90804 14.9706 3.18934 14.6893C3.47064 14.408 3.85218 14.25 4.25 14.25H12.5C12.8978 14.25 13.2794 14.408 13.5607 14.6893C13.842 14.9706 14 15.3522 14 15.75C14 16.413 13.7502 17.34 12.9455 18.1027C12.143 18.8632 10.745 19.5 8.375 19.5C6.005 19.5 4.607 18.8625 3.8045 18.1027C2.99975 17.34 2.75 16.413 2.75 15.75ZM15.4722 17.691C15.3772 17.917 15.2617 18.142 15.1257 18.366C15.8202 18.6038 16.6835 18.75 17.75 18.75C19.8815 18.75 21.2008 18.1672 21.9905 17.43C22.772 16.701 23 15.8505 23 15.375C23 14.8777 22.8025 14.4008 22.4508 14.0492C22.0992 13.6975 21.6223 13.5 21.125 13.5H15.0155C15.2165 13.725 15.3882 13.977 15.524 14.25H21.125C21.4234 14.25 21.7095 14.3685 21.9205 14.5795C22.1315 14.7905 22.25 15.0766 22.25 15.375C22.25 15.6503 22.103 16.2998 21.4783 16.8825C20.8625 17.4578 19.7435 18 17.75 18C16.8088 18 16.0625 17.8792 15.4722 17.691Z" fill="black"/>
</g>
</svg>
