<svg width="21" height="22" viewBox="0 0 21 22" fill="none" xmlns="http://www.w3.org/2000/svg">
<g id="Group">
<path id="Vector" d="M10.4282 14.0254C12.0851 14.0254 13.4282 12.7219 13.4282 11.114C13.4282 9.5061 12.0851 8.20264 10.4282 8.20264C8.77137 8.20264 7.42822 9.5061 7.42822 11.114C7.42822 12.7219 8.77137 14.0254 10.4282 14.0254Z" stroke="black" stroke-width="1.5"/>
<path id="Vector_2" d="M12.1932 1.55693C11.8262 1.40942 11.3602 1.40942 10.4282 1.40942C9.49618 1.40942 9.03018 1.40942 8.66318 1.55693C8.42037 1.65448 8.19974 1.79751 8.01391 1.97784C7.82808 2.15818 7.6807 2.37229 7.58019 2.60794C7.48819 2.82435 7.45118 3.07764 7.43718 3.44544C7.43067 3.71128 7.35479 3.97117 7.21663 4.2008C7.07846 4.43043 6.88254 4.62231 6.64718 4.75847C6.40799 4.88829 6.13877 4.9571 5.86472 4.95845C5.59066 4.95981 5.32073 4.89368 5.08018 4.76623C4.74418 4.59349 4.50118 4.49839 4.26018 4.46733C3.7345 4.40025 3.20288 4.53847 2.78219 4.85163C2.46819 5.08745 2.23418 5.47855 1.76818 6.26171C1.30218 7.04487 1.06818 7.43596 1.01718 7.81929C0.98282 8.07205 1.0001 8.3289 1.06805 8.57517C1.136 8.82145 1.25328 9.05232 1.41318 9.25459C1.56118 9.44092 1.76818 9.59717 2.08918 9.7932C2.56218 10.0814 2.86619 10.5725 2.86619 11.114C2.86619 11.6555 2.56218 12.1466 2.08918 12.4338C1.76818 12.6308 1.56018 12.7871 1.41318 12.9734C1.25328 13.1757 1.136 13.4065 1.06805 13.6528C1.0001 13.8991 0.98282 14.1559 1.01718 14.4087C1.06918 14.7911 1.30218 15.1831 1.76718 15.9663C2.23418 16.7494 2.46719 17.1405 2.78219 17.3763C2.99062 17.5315 3.22852 17.6453 3.48229 17.7113C3.73606 17.7772 4.00073 17.794 4.26119 17.7606C4.50119 17.7296 4.74418 17.6345 5.08018 17.4617C5.32073 17.3343 5.59066 17.2682 5.86472 17.2695C6.13877 17.2709 6.40799 17.3397 6.64718 17.4695C7.13018 17.7412 7.41718 18.241 7.43718 18.7825C7.45118 19.1513 7.48719 19.4036 7.58019 19.62C7.6807 19.8557 7.82808 20.0698 8.01391 20.2501C8.19974 20.4305 8.42037 20.5735 8.66318 20.671C9.03018 20.8186 9.49618 20.8186 10.4282 20.8186C11.3602 20.8186 11.8262 20.8186 12.1932 20.671C12.436 20.5735 12.6566 20.4305 12.8425 20.2501C13.0283 20.0698 13.1757 19.8557 13.2762 19.62C13.3682 19.4036 13.4052 19.1513 13.4192 18.7825C13.4392 18.241 13.7262 17.7403 14.2092 17.4695C14.4484 17.3397 14.7176 17.2709 14.9917 17.2695C15.2657 17.2682 15.5356 17.3343 15.7762 17.4617C16.1122 17.6345 16.3552 17.7296 16.5952 17.7606C16.8556 17.794 17.1203 17.7772 17.3741 17.7113C17.6278 17.6453 17.8657 17.5315 18.0742 17.3763C18.3892 17.1415 18.6222 16.7494 19.0882 15.9663C19.5542 15.1831 19.7882 14.792 19.8392 14.4087C19.8735 14.1559 19.8563 13.8991 19.7883 13.6528C19.7204 13.4065 19.6031 13.1757 19.4432 12.9734C19.2952 12.7871 19.0882 12.6308 18.7672 12.4348C18.5331 12.2964 18.339 12.1026 18.2032 11.8716C18.0673 11.6406 17.994 11.38 17.9902 11.114C17.9902 10.5725 18.2942 10.0814 18.7672 9.79417C19.0882 9.59717 19.2962 9.44092 19.4432 9.25459C19.6031 9.05232 19.7204 8.82145 19.7883 8.57517C19.8563 8.3289 19.8735 8.07205 19.8392 7.81929C19.7872 7.43693 19.5542 7.04487 19.0892 6.26171C18.6222 5.47855 18.3892 5.08745 18.0742 4.85163C17.8657 4.69645 17.6278 4.58264 17.3741 4.5167C17.1203 4.45076 16.8556 4.43398 16.5952 4.46733C16.3552 4.49839 16.1122 4.59349 15.7752 4.76623C15.5348 4.8935 15.265 4.95954 14.9912 4.95819C14.7173 4.95683 14.4483 4.88812 14.2092 4.75847C13.9738 4.62231 13.7779 4.43043 13.6397 4.2008C13.5016 3.97117 13.4257 3.71128 13.4192 3.44544C13.4052 3.07667 13.3692 2.82435 13.2762 2.60794C13.1757 2.37229 13.0283 2.15818 12.8425 1.97784C12.6566 1.79751 12.436 1.65448 12.1932 1.55693Z" stroke="black" stroke-width="1.5"/>
</g>
</svg>
