<svg width="14" height="14" viewBox="0 0 14 14" fill="none" xmlns="http://www.w3.org/2000/svg">
<g id="streamline:customer-support-1" clip-path="url(#clip0_2173_7355)">
<path id="Vector" d="M3 7.00014V4.37014C3.00781 3.85317 3.11755 3.34283 3.32294 2.86835C3.52832 2.39386 3.82532 1.96457 4.1969 1.60506C4.56848 1.24556 5.00735 0.962907 5.48836 0.773304C5.96936 0.583702 6.48306 0.490875 7 0.500143C7.51694 0.490875 8.03064 0.583702 8.51164 0.773304C8.99265 0.962907 9.43152 1.24556 9.8031 1.60506C10.1747 1.96457 10.4717 2.39386 10.6771 2.86835C10.8824 3.34283 10.9922 3.85317 11 4.37014V7.00014M9 12.2501C9.53043 12.2501 10.0391 12.0394 10.4142 11.6644C10.7893 11.2893 11 10.7806 11 10.2501V8.00014M9 12.2501C9 12.5817 8.8683 12.8996 8.63388 13.134C8.39946 13.3684 8.08152 13.5001 7.75 13.5001H6.25C5.91848 13.5001 5.60054 13.3684 5.36612 13.134C5.1317 12.8996 5 12.5817 5 12.2501C5 11.9186 5.1317 11.6007 5.36612 11.3663C5.60054 11.1318 5.91848 11.0001 6.25 11.0001H7.75C8.08152 11.0001 8.39946 11.1318 8.63388 11.3663C8.8683 11.6007 9 11.9186 9 12.2501ZM1.5 5.50014H2.5C2.63261 5.50014 2.75979 5.55282 2.85355 5.64659C2.94732 5.74036 3 5.86753 3 6.00014V9.00014C3 9.13275 2.94732 9.25993 2.85355 9.3537C2.75979 9.44747 2.63261 9.50014 2.5 9.50014H1.5C1.23478 9.50014 0.98043 9.39479 0.792893 9.20725C0.605357 9.01971 0.5 8.76536 0.5 8.50014V6.50014C0.5 6.23493 0.605357 5.98057 0.792893 5.79304C0.98043 5.6055 1.23478 5.50014 1.5 5.50014ZM12.5 9.50014H11.5C11.3674 9.50014 11.2402 9.44747 11.1464 9.3537C11.0527 9.25993 11 9.13275 11 9.00014V6.00014C11 5.86753 11.0527 5.74036 11.1464 5.64659C11.2402 5.55282 11.3674 5.50014 11.5 5.50014H12.5C12.7652 5.50014 13.0196 5.6055 13.2071 5.79304C13.3946 5.98057 13.5 6.23493 13.5 6.50014V8.50014C13.5 8.76536 13.3946 9.01971 13.2071 9.20725C13.0196 9.39479 12.7652 9.50014 12.5 9.50014Z" stroke="black" stroke-linecap="round" stroke-linejoin="round"/>
</g>
<defs>
<clipPath id="clip0_2173_7355">
<rect width="14" height="14" fill="white"/>
</clipPath>
</defs>
</svg>
