<svg width="15" height="16" viewBox="0 0 15 16" fill="none" xmlns="http://www.w3.org/2000/svg">
<path id="Vector" d="M14.6678 0.843621C14.5625 0.738148 14.4375 0.65447 14.2998 0.597377C14.1622 0.540283 14.0147 0.510895 13.8657 0.510895C13.7166 0.510895 13.5691 0.540283 13.4315 0.597377C13.2938 0.65447 13.1688 0.738148 13.0635 0.843621L7.5 6.39579L1.93646 0.832243C1.83112 0.726909 1.70607 0.643353 1.56845 0.586347C1.43082 0.529341 1.28331 0.5 1.13435 0.5C0.985385 0.5 0.837878 0.529341 0.700252 0.586347C0.562627 0.643353 0.437577 0.726909 0.332243 0.832243C0.226909 0.937577 0.143353 1.06263 0.0863469 1.20025C0.0293405 1.33788 -1.10987e-09 1.48538 0 1.63435C1.10988e-09 1.78331 0.0293405 1.93082 0.0863469 2.06845C0.143353 2.20607 0.226909 2.33112 0.332243 2.43646L5.89579 8L0.332243 13.5635C0.226909 13.6689 0.143353 13.7939 0.0863469 13.9316C0.0293405 14.0692 0 14.2167 0 14.3657C0 14.5146 0.0293405 14.6621 0.0863469 14.7997C0.143353 14.9374 0.226909 15.0624 0.332243 15.1678C0.437577 15.2731 0.562627 15.3566 0.700252 15.4137C0.837878 15.4707 0.985385 15.5 1.13435 15.5C1.28331 15.5 1.43082 15.4707 1.56845 15.4137C1.70607 15.3566 1.83112 15.2731 1.93646 15.1678L7.5 9.60421L13.0635 15.1678C13.1689 15.2731 13.2939 15.3566 13.4316 15.4137C13.5692 15.4707 13.7167 15.5 13.8657 15.5C14.0146 15.5 14.1621 15.4707 14.2997 15.4137C14.4374 15.3566 14.5624 15.2731 14.6678 15.1678C14.7731 15.0624 14.8566 14.9374 14.9137 14.7997C14.9707 14.6621 15 14.5146 15 14.3657C15 14.2167 14.9707 14.0692 14.9137 13.9316C14.8566 13.7939 14.7731 13.6689 14.6678 13.5635L9.10421 8L14.6678 2.43646C15.1001 2.00411 15.1001 1.27596 14.6678 0.843621Z" fill="#5A5A5A"/>
</svg>
