<svg width="40" height="40" viewBox="0 0 40 40" fill="none" xmlns="http://www.w3.org/2000/svg">
<g id="mdi:head-question">
<path id="Vector" d="M21.3842 7C16.2054 7 12.0294 11.2611 11.7684 16.62L9.13097 20.2744C8.80129 20.7222 9.13097 21.4444 9.70792 21.4444H11.7684V25.7778C11.7684 27.3811 12.991 28.6667 14.5158 28.6667H15.8895V33H25.5053V26.2256C28.7609 24.6078 31 21.1556 31 17.1111C31 11.5356 26.7141 7 21.3842 7ZM22.7579 22.8889H20.0105V20H22.7579V22.8889ZM25.1618 15.3922C24.7635 15.97 24.2552 16.3889 23.6371 16.7356C23.2936 16.9667 23.0601 17.2122 22.9365 17.4867C22.8129 17.7467 22.7579 18.1078 22.7579 18.5556H20.0105C20.0105 17.8333 20.1616 17.2267 20.4364 16.8511C20.6974 16.4611 21.1782 16.0278 21.8787 15.5367C22.2359 15.3056 22.5244 15.0167 22.7167 14.6844C22.9365 14.3522 23.0326 13.9622 23.0326 13.5C23.0326 13.0667 22.9227 12.6911 22.6755 12.4167C22.4282 12.1567 22.0711 12.0122 21.6452 12.0122C21.3148 12.0047 20.993 12.1226 20.7386 12.3444C20.4913 12.5756 20.3677 12.9078 20.354 13.3411H17.7028L17.689 13.2978C17.6753 12.1567 18.0324 11.3333 18.7467 10.7411C19.4885 10.1778 20.4501 9.88889 21.6452 9.88889C22.9227 9.88889 23.9255 10.2211 24.6536 10.8711C25.3954 11.5211 25.7663 12.4022 25.7663 13.5C25.7663 14.2222 25.5602 14.8144 25.1618 15.3922Z" fill="black"/>
</g>
</svg>
